<?xml version="1.0" encoding="UTF-8"?><svg id="a" xmlns="http://www.w3.org/2000/svg" viewBox="0 0 352.74 320"><path d="M326.73,201.91c-1.72,7.73-4.46,15.04-7.55,22.06-3.49,7.62-7.36,15.04-12.2,21.48-7.15,9.74-16.42,16.44-25.51,23.01-9.06,6.42-18.02,13.17-27.61,18.34-19.33,9.78-40.24,14.36-61.04,15.65-12.08.79-24.21.98-36.25-.62-12.7-1.98-25.1-5.96-37.58-9.37-10.78-2.97-21.38-6.91-31.6-12.12-24.06-12.57-58.09-32.02-64.96-66.18-1.87-10.08.23-20.48,2.67-30.14,7.3-27.81,22.22-51.37,38.17-72.46,12.14-15.89,24.85-31.28,39.08-44.3,11.83-10.96,24.8-19.81,37.84-28.34,8.83-5.85,17.59-12,26.85-16.71.34-.09.69-.17,1.03-.26-.03,0-.05.01-.07.02.64-.16,1.29-.34,1.92-.57.55-.2,1.09-.43,1.64-.63.29-.11.59-.18.88-.27.26-.07.52-.15.78-.23.58-.18,1.17-.36,1.76-.53.65-.18,1.3-.34,1.95-.46.66-.13,1.32-.24,1.98-.38.68-.14,1.37-.29,2.04-.46.33-.08.65-.16.98-.24.3-.07.61-.11.91-.16.45-.06.9-.11,1.35-.17,0,0-.02,0-.02,0,.47-.06.94-.12,1.41-.18.83-.09,1.65-.18,2.48-.28.81-.1,1.62-.2,2.44-.28.56-.04,1.12-.07,1.68-.1,2.98.83,5.89,2.11,8.85,3.09,7.57,2.47,15.12,5.03,22.67,7.62,6.4,2.18,11.83,7.13,17.73,10.73,15.54,10.54,29.49,24.18,43.72,37.16,5.42,4.56,10.88,9.16,15.54,14.9,8.23,10.03,14.6,22.4,18.74,35.73,2.91,9.54,4.03,19.74,6.18,29.56,2.32,11.81,3.78,24.27,2.64,36.39-.3,3.25-.79,6.48-1.5,9.67ZM31.15,222.72c8.75,20.24,28.08,33.67,44.3,43.37,11.75,6.72,23.75,12.85,36.3,16.87,15.12,4.37,30.21,9.24,45.62,11.81,10.57,1.4,21.21,1.33,31.82.78,17.68-.77,35.32-4.11,52.22-10.65,14.94-5.72,28.22-16.26,41.67-25.88,7.75-5.67,15.37-11.93,21.21-20.54,7.54-11.4,13.66-24.62,16.96-38.83,2.34-10.8,1.9-22.05.31-33.02-.03-1.11-.06-2.23-.15-3.34-.07-.87-.18-1.74-.28-2.61-.11-.91-.2-1.81-.29-2.72-.17-1.68-.38-3.36-.53-5.05-.16-1.79-.3-3.58-.53-5.37-.23-1.77-.49-3.54-.78-5.29-.3-1.81-.67-3.6-1.17-5.34-.49-1.72-1.04-3.42-1.64-5.09-.33-.9-.68-1.8-1.02-2.69-.31-.8-.62-1.6-.95-2.39-.32-.75-.63-1.51-1-2.23-.42-.84-.85-1.66-1.29-2.48-.3-.56-.61-1.13-.91-1.69-1.11-2.74-2.33-5.41-3.65-8.01-4.01-8.05-8.89-15.11-14.72-21.15-.24-.25-.48-.49-.73-.73-.51-.75-1.03-1.49-1.59-2.19-1.34-1.69-2.83-3.19-4.29-4.72-.78-.84-1.56-1.71-2.35-2.54-.44-.46-.88-.91-1.33-1.35-.46-.45-.94-.89-1.4-1.34-.58-.57-1.15-1.16-1.73-1.73-.57-.56-1.14-1.13-1.71-1.71-.52-.53-1.03-1.06-1.55-1.57-.58-.57-1.17-1.12-1.76-1.67-1.08-1.01-2.2-1.97-3.32-2.91-.57-.48-1.14-.97-1.71-1.44-.59-.48-1.19-.93-1.78-1.41-.55-.45-1.11-.91-1.67-1.35-.56-.43-1.12-.85-1.68-1.27-.58-.45-1.15-.91-1.72-1.37-.5-.4-1-.8-1.5-1.2-.73-.6-1.46-1.21-2.18-1.83-.79-.67-1.58-1.31-2.39-1.94-.74-.58-1.48-1.15-2.22-1.72-.68-.52-1.37-1.03-2.04-1.56-1.71-1.4-3.34-2.94-5.07-4.31-.61-.48-1.22-.95-1.86-1.35-.65-.41-1.3-.8-1.95-1.21-1.26-.79-2.52-1.59-3.77-2.38-1.34-.84-2.65-1.73-4-2.56-1.34-.83-2.68-1.66-4.04-2.43-.68-.38-1.35-.76-2.04-1.12-.44-.23-.89-.46-1.33-.69-.85-.53-1.7-1.06-2.56-1.58-4.27-1.74-8.59-3.28-12.94-4.72-.82-.44-1.63-.89-2.48-1.25.02,0,.03.01.05.02-.05-.02-.11-.05-.16-.07,0,0,0,0,0,0-.03-.01-.06-.03-.09-.04t0,0h0s0,0,0,0c0,0,0,0,0,0-.9-.38-1.82-.69-2.75-.97-.48-.15-.97-.28-1.45-.4-.43-.11-.87-.18-1.3-.27-.64-.13-1.28-.25-1.93-.34-.1-.01-.2-.03-.3-.04-3.89-1.27-7.7-2.93-11.61-4.08-.94-.16-1.88-.31-2.82-.45-1.25-.18-2.51-.33-3.77-.42-16.84,4.59-31.76,16.51-46.96,26.24-12.61,8.34-24.95,17.46-36.11,28.56-17.4,17.38-33.22,37.29-47.39,58.69-9.68,15.21-18.24,31.87-22.99,50.45-1.21,4.86-2.19,9.5-2.62,14.07-.68,7.26.03,14.33,3.39,21.74Z"/><path d="M185.5,17.72s.04,0,.05,0c-.02,0-.04,0-.05,0Z"/><path d="M333.47,193.05c-.15.88-.3,1.76-.45,2.64-.07.4-.13.8-.19,1.2-.4,1.64-.81,3.28-1.2,4.93,0-.02.01-.04.01-.06-.01.06-.03.12-.04.18v-.04c-.04.19-.08.38-.12.57.01-.06.03-.12.04-.18-.11.49-.22.98-.33,1.48.01-.06.03-.12.04-.18-.12.57-.24,1.15-.39,1.71-.15.59-.31,1.17-.49,1.74l.06-.18c-.29.94-.58,1.88-.82,2.85-.22.87-.44,1.74-.67,2.6-.23.75-.47,1.5-.73,2.23-.27.76-.55,1.5-.83,2.25-.28.76-.55,1.53-.81,2.3-.26.77-.52,1.55-.81,2.31,0,0,0,.02,0,.02-.52,1.33-1.06,2.65-1.65,3.93-.27.6-.57,1.18-.85,1.76-.28.58-.57,1.15-.86,1.73,0,0,0,0,0,0h0s0,.01-.01.02c-.23.45-.46.91-.7,1.35-.27.49-.55.98-.83,1.47-.44.77-.89,1.54-1.35,2.31-.61.88-1.2,1.76-1.78,2.67-.09.15-.19.29-.28.44-.18.26-.36.51-.54.77-.9,1.28-1.82,2.54-2.75,3.8-.3.41-.6.82-.91,1.23-1.09,1.05-2.15,2.14-3.14,3.34-5.95,6.5-11.91,13.08-18.46,18.65-4.22,3.48-8.82,6.16-13.27,9.16-4.14,2.79-8.4,5.3-12.86,7.2-6.93,3.29-13.59,7.44-20.71,10.12-8.15,2.82-16.55,4.37-24.93,5.7-16.83,1.79-33.83,3.96-50.69,1.74-6.72-1.03-13.39-2.49-20.09-3.69-4.15-.48-8.31-.68-12.45-1.26-8.69-1.22-17.17-4.1-25.8-5.75-12.66-2.35-25.17-6.02-37.23-11.37-8.32-3.41-16.47-7.83-23.15-15.02-1.65-1.82-3.7-2.9-5.47-4.52-4.76-4.07-9.33-8.51-13.31-13.73-2.47-3.08-4.39-6.71-6.35-10.28-1.9-3.4-3.68-6.95-4.75-10.89-1.9-5.85-2.14-12.11-1.72-18.32,0-4.56.43-9.09,1.17-13.56.71-4.46.83-9.06,1.8-13.47,1.46-7.19,3.79-14.06,6.18-20.84.68-1.91,1.43-3.78,2.23-5.6.21-.39.42-.78.64-1.16.58-1.03,1.16-2.05,1.73-3.09,1.15-2.12,2.26-4.27,3.42-6.38.55-1.01,1.15-1.97,1.72-2.96.6-1.02,1.2-2.05,1.82-3.05,1.23-1.98,2.45-3.97,3.71-5.92.65-1.01,1.31-2,2-2.97.71-1,1.41-2.01,2.09-3.03.64-.94,1.27-1.89,1.91-2.83.34-.51.68-1.01,1.02-1.52,1.01-1.32,2.07-2.59,3.14-3.83.45-.85.92-1.69,1.4-2.51.17-.22.34-.44.51-.66.71-.9,1.42-1.79,2.11-2.71.7-.93,1.38-1.88,2.07-2.82,1.33-1.82,2.77-3.51,4.14-5.29.73-.94,1.46-1.86,2.19-2.8.68-.89,1.36-1.78,2.05-2.66.35-.45.71-.91,1.08-1.35.35-.42.71-.82,1.07-1.23.76-.87,1.51-1.74,2.26-2.61,0,0,0,0,0,0,2.73-2.8,5.54-5.48,8.39-8.08,6.82-6.3,13.87-12.23,21.17-17.65,7.35-5.13,13.84-11.92,21.23-16.99,10.92-8.2,22.51-14.94,34.4-20.7.37-.17.75-.35,1.13-.51.2-.05.4-.11.61-.17.33-.1.66-.21.98-.35.31-.13.63-.27.94-.39.33-.13.66-.25.99-.37.68-.24,1.35-.52,2.02-.79.32-.13.65-.26.98-.38.31-.12.63-.21.95-.3.13-.03.25-.07.38-.1,0,0,0,0-.01,0,.01,0,.02,0,.03,0,0,0,0,0,0,0h0s0,0,0,0h0s0,0,0,0,0,0,0,0c0,0,0,0,0,0s0,0,0,0h0s0,0,0,0t0,0h0s0,0,0,0c.02,0,.04,0,.05-.01,0,0,0,0,0,0,.49-.13.99-.25,1.49-.38-.03,0-.05.01-.07.02.64-.16,1.29-.34,1.92-.57.55-.2,1.09-.43,1.64-.63.29-.11.59-.18.88-.27.26-.07.52-.15.78-.23.58-.18,1.17-.36,1.76-.53.13-.04.27-.07.4-.11.16-.04.33-.07.49-.11.04-.01.07-.03.11-.04.32-.08.64-.14.95-.21.66-.13,1.32-.24,1.98-.38.68-.14,1.37-.29,2.04-.46.33-.08.65-.16.98-.24.3-.07.61-.11.91-.16.42-.06.85-.11,1.27-.16,0,0,0,0-.01,0,0,0,0,0,.01,0h.02s.03,0,.05,0h0c.47-.06.93-.12,1.4-.18.83-.09,1.65-.18,2.48-.28.81-.1,1.62-.2,2.44-.28,1.15-.08,2.3-.14,3.46-.18.27-.01.54-.02.81-.03,4.38.11,8.76.62,13.09,1.47,5.74.55,11.44,1.66,17.05,3.28,10.12,2.65,19.35,8.59,28.26,14.9,1.46,1.04,2.92,2.1,4.36,3.19.1.1.2.2.29.29.16.16.34.28.5.43,0,0,.01.01.02.02,0,0,0,0,0,0,0,0,0,0,0,0,0,0,0,0,0,0,0,0,0,0,0,0,.29.25.6.48.89.72.08.07.16.13.23.19.04.04.09.07.13.11.16.14.32.29.48.44.26.24.52.49.79.71.44.36.91.66,1.37.97.2.19.4.39.61.57.18.16.37.31.55.46.13.11.26.22.4.32.16.12.33.23.49.35.27.18.55.35.82.53,3.2,2.78,6.28,5.76,9.17,9.03,2.47,2.72,4.85,5.57,7.09,8.58,1.67,2.54,3.55,4.74,5.74,6.58,8.04,7.46,14.96,16.53,21.42,26.02,4.48,6.55,8.65,13.47,11.98,21.02,3.35,8.6,6.53,17.35,9.21,26.31,4.16,15.9,5.1,32.95,3.75,49.55,0,.02,0,.04-.01.07ZM26,194.1c.27,11.92,4.23,23.14,7.42,34.22,3.67,7.78,8.69,14.62,13.94,20.83,3.41,4.04,7.94,6.14,12.12,8.68,9.35,5.7,19.32,9.33,29.34,12.69,8.1,2.88,16.05,6.47,24.28,8.77,10.27,2.65,20.58,5.27,30.95,7.27,9.41,1.55,18.89,2.35,28.37,2.88,7.54.21,15.07-.87,22.62-.84,6.82-.27,13.65-.27,20.46-.96,4.71-.68,9.39-1.68,14.1-2.36,5.87-.6,11.65-2.02,17.33-3.95,7.21-2.14,14.1-5.53,20.67-9.77,10.5-6.38,20.1-14.64,28.24-25.04,10.6-13.16,20.94-27.1,27.73-43.84,4.26-11.83,5.55-25.53,3.43-38.22-1.56-8.2-4.6-15.66-8.1-22.82-.28-1.61-.62-3.19-1.06-4.74-.49-1.72-1.04-3.42-1.64-5.09-.33-.9-.68-1.8-1.02-2.69-.31-.8-.62-1.6-.95-2.39-.32-.75-.63-1.51-1-2.23-.42-.84-.85-1.66-1.29-2.48-.8-1.48-1.58-2.98-2.37-4.46-.77-1.43-1.57-2.84-2.41-4.21-.45-.73-.91-1.45-1.39-2.17-.42-.63-.85-1.25-1.27-1.87-.86-1.26-1.71-2.52-2.56-3.78-.88-1.3-1.77-2.6-2.65-3.9-.9-1.34-1.83-2.64-2.76-3.95-.87-1.24-1.72-2.51-2.49-3.84-.3-.53-.59-1.06-.9-1.57-.3-.48-.6-.96-.91-1.43-.59-.9-1.2-1.77-1.86-2.59-.57-.72-1.17-1.4-1.77-2.06-1.1-2.01-2.22-4-3.4-5.94-3.42-4.3-7.09-8.3-11.16-11.65-6.16-4.93-12.57-9.41-18.76-14.28-2.56-1.64-5.18-3.15-7.81-4.6-.17-.14-.34-.27-.51-.41-.61-.48-1.22-.95-1.86-1.35-.65-.41-1.3-.8-1.95-1.21-1.26-.79-2.52-1.59-3.77-2.38-1.34-.84-2.65-1.73-4-2.56-1.34-.83-2.68-1.66-4.04-2.43-.68-.38-1.35-.76-2.04-1.12-.67-.35-1.35-.69-2.01-1.05-.66-.36-1.33-.71-2-1.06-.7-.36-1.4-.69-2.12-.97-.68-.27-1.37-.53-2.05-.78-.62-.22-1.24-.42-1.87-.62-.72-.24-1.43-.5-2.15-.75-.68-.23-1.36-.45-2.04-.7-.62-.25-1.23-.5-1.85-.7-.06-.02-.11-.04-.17-.05-1.01-.52-2-1.1-3.03-1.54,0,0,0,0,.01,0-.05-.02-.1-.04-.15-.06h0s0,0,0,0c0,0,0,0,0,0h0s-.02-.01-.03-.01c0,0-.02,0-.02,0-.01,0-.02,0-.03-.01,0,0,0,0,0,0h0c-.9-.38-1.81-.68-2.73-.96-.48-.15-.97-.28-1.45-.4-.02,0-.04-.01-.06-.02-2.13-.69-4.29-1.21-6.47-1.52-2.77-.4-5.57-.46-8.4-.1-8.48.48-16.61,3.14-24.75,5.94-9.32,4.64-18.49,9.82-27.27,15.88-8.75,5.76-17.61,11.38-25.79,18.34-16.12,14.18-30.4,31.24-45.1,47.54-3.58,3.88-6.68,8.36-10.02,12.54-5.71,6.87-11.32,14.01-15.68,22.32-3.11,6.47-6.9,12.44-9.66,19.16-1.98,4.94-3.52,10.13-4.77,15.42-.51,2.63-1.25,5.26-1.5,7.96-.06.69-.1,1.38-.08,2.08ZM307.32,108.01c3.41,5.88,6.98,11.62,10.15,17.7-4.02-11.47-10.55-21.23-17.2-30.51,2.28,4.32,4.63,8.6,7.05,12.81Z"/><path d="M209.97,30.03s0,0,.01,0c0,0,0,0-.01,0Z"/><path d="M166.56,22.34s.01,0,.02,0c0,0-.01,0-.02,0Z"/><path d="M184.1,17.9s.01,0,.02,0c0,0-.01,0-.02,0Z"/><path d="M166.53,22.35s.01,0,.01,0c0,0-.01,0-.01,0Z"/><path d="M322.38,228.83s0-.01.01-.02c0,0,0,.01-.01.02Z"/><path d="M235.15,35.7c-1.01.66-2.07.23-3.08-.17-2.8-.95-5.58-1.99-8.43-2.65-6.1-1.73-12.27-2.84-18.54-3.03-13.43-.4-26.73,2.45-39.79,6.12-7.19,2.47-14.27,5.41-21.28,8.56-5.31,2.69-10.38,6-15.44,9.34-4.17,2.98-8.51,5.57-12.59,8.74-3.98,2.86-8.07,5.53-11.63,9.18-2.39,2.2-4.96,4.08-7.37,6.25-1.57,1.51-3.27,4.33-5.16,4.06-.58-.08-1.19-.46-1.81-1.26-1.01-1.47-.88-3.78.33-5.03,3.2-4,7.2-6.7,10.84-9.98,5.13-5.09,11.09-8.73,16.74-12.84,8.18-5.55,16.3-11.35,24.99-15.58,9.57-4.14,19.18-8.42,29.21-10.52,15.2-3.84,30.98-5.83,46.38-2.59,5.5,1.36,10.99,2.73,16.35,4.82,1.35.53,1.99,2.25,1.84,3.84-.11,1.14-.62,2.22-1.58,2.73Z"/><path d="M236.54,41.07c-1.52-.03-2.71-1.33-4.14-1.83-1.45-.75-2.96-1.25-4.47-1.79-2.88-1.17-5.93-1.33-8.84-2.3-4.48-1.62-9.09-2.51-13.73-2.98-5.83-.79-11.68-.33-17.51.04-5.3.24-10.56.97-15.75,2.31-7.94,1.81-15.73,4.61-23.28,8.12-7.08,3.87-14.1,7.94-21.08,12.08-5.02,3.31-10.1,6.55-14.81,10.52-1.87,1.68-3.77,3.29-5.64,4.97-1.53,1.37-3.38,3.94-5.22,3.67-.59-.08-1.17-.46-1.75-1.24-.99-1.45-.9-3.82.33-5.03,2.36-2.4,4.85-4.6,7.35-6.76,9.48-8.41,20.18-14.32,30.71-20.37,11.28-6.93,23.52-11.18,35.91-13.78,15.17-2.64,31.15-3.53,46.05,1.58,3.1.91,6.39,1.22,9.39,2.51,2.82,1.07,5.8,2.02,8.27,4.07.74.77,1.01,1.89.91,2.96-.15,1.66-1.18,3.21-2.68,3.25Z"/><path d="M227.8,37.41s.09.03.13.05c0,0,.01,0,.01,0-.08-.03-.11-.04-.15-.05Z"/><path d="M227.74,37.39s.02,0,.03.01c-.01,0-.02,0-.03-.01Z"/><path d="M227.58,37.33c.06.02.11.04.17.06-.06-.02-.11-.04-.17-.06Z"/><path d="M311.45,239.9c-1.87,2.22-3.65,4.55-5.46,6.84-6.17,7.49-13.48,13.21-20.94,18.5-9.06,6.98-19.02,11.91-28.96,16.61-6.91,3.15-13.93,5.97-21.11,8.06-5.78,1.06-11.44,2.93-17.25,3.77-2.67.64-5.37.97-8.08,1.05-2.97.62-5.98.95-8.98,1.24-2.61.29-5.24.45-7.85.73-.47.31-1.03.41-1.57.33-.38-.05-.75-.19-1.08-.41-3.07-2.18-1.4-7.33,2-7.01,4.64-.46,9.28-.8,13.9-1.43,2.14-.5,4.31-.7,6.48-.76,2.25-.37,4.49-.86,6.75-1.21,3.86-.6,7.61-1.95,11.45-2.68,2.82-.39,5.52-1.42,8.26-2.26,13.1-4.68,25.89-10.86,38.06-18.47,6.18-4.68,12.6-8.85,18.39-14.24,3.1-3.11,6.16-6.3,8.86-9.95,1.86-2.14,4.19-6.67,6.93-3.77.7.76,1.03,1.97.92,3.11-.07.72-.3,1.41-.72,1.93Z"/><path d="M327.52,216.99c-.29.83-.55,1.68-.85,2.5-.11.29-.23.58-.35.87-.1.25-.21.5-.33.74-.26.57-.52,1.15-.76,1.73-.2.47-.39.95-.58,1.43-2.26,4.15-4.53,8.32-7.18,12.11-7.77,9.91-16.05,19.37-25.11,27.45-6.62,6.32-13.89,11.48-21.56,15.55-7.63,4.03-15.41,7.67-23.31,10.77-4.14,1.21-8.26,2.57-12.42,3.63-4.18.65-8.3,1.79-12.47,2.55-7.44,1.4-14.91,2.55-22.42,3.02-4.33.49-8.73.49-13.04-.29-.55.45-1.23.63-1.89.54-.35-.05-.68-.17-.99-.38-2.06-1.3-2.14-5.36-.09-6.74,1.31-.97,2.78-.69,4.22-.41.54.11,1.08.21,1.61.25,2.3.21,4.61.3,6.91.17,16.32-1.18,32.58-4.11,48.44-9.02,11.55-4.56,23.01-9.83,33.66-17.07,11.59-8.61,21.82-19.7,31.49-31.32,4-4.69,7-10.45,10.07-16.07,1.55-2.65,2.93-7.8,6.25-5.25.66.63,1.01,1.31,1.14,2.02-.15.4-.29.8-.43,1.21Z"/><path d="M323.66,212.05c-2.08,4.55-3.6,9.43-5.48,14.11-1.86,4.18-3.94,8.22-6.29,12.01-1.42,2.11-2.94,6.17-5.29,5.83-.42-.06-.87-.26-1.35-.64-1.25-1.08-1.66-3.41-.71-4.97,1.44-2.37,2.9-4.7,4.3-7.1,1.25-2.16,2.33-4.46,3.47-6.71,1.71-3.6,2.86-7.53,4.3-11.28,1.29-2.84,2.52-5.72,3.22-8.88,2.25-9.66,2.33-19.81,2.78-29.78.23-5.83.31-11.69-.13-17.51-.72-6.25-2.16-12.38-3.72-18.38-2.89-8.14-7.17-15.35-11.19-22.67-3.06-4.81-6.44-9.27-9.7-13.87-3.01-4.3-5.98-8.63-9.09-12.83-1.78-2.56-3.44-5.24-5.51-7.46-3.35-3.94-6.87-7.63-9.97-11.88-2.55-3.93-5.77-6.93-8.91-10.08-2.48-2.55-5.41-4.19-8.33-5.82-1.79.09-3.27-2.33-2.75-4.43.89-3.81,3.94-3.09,6.16-1.47,3.73,1.95,7.21,4.53,10.2,7.93,5.6,4.7,9.36,11.91,14.59,17.15,6.4,6.89,11.58,15.47,17.25,23.17,3.29,4.83,6.86,9.36,10.03,14.33,3.27,5.51,6.36,11.23,9.2,17.09,1.41,3.25,2.94,6.47,3.88,9.98,1.28,5.59,2.68,11.19,3.4,16.94.95,9.42.39,18.96,0,28.42-.19,3.58-.38,7.2-.72,10.79-.58,6.19-1.57,12.3-3.64,18.02Z"/><path d="M325.17,182.34c-1.22-.18-2.35-1.23-2.47-3.27-.14-5.86-.84-11.64-1.56-17.42-.4-3.26-.63-6.54-1.37-9.73-1.36-8.47-3.87-16.64-6.79-24.47-1.22-2.66-2.75-5.07-4.05-7.67-.75-1.67-1.66-3.21-2.7-4.62-3.98-6.24-7.81-12.63-11.92-18.73-2.14-3.22-4.43-6.29-6.64-9.44-1.02-1.35-2.23-2.4-3.44-3.47-1.79-1.8-3.55-3.65-5.35-5.44-1.76-2.24-3.3-4.73-4.95-7.09-1.36-1.55-2.68-3.11-3.66-5.07-.79-1.49-2.33-2.03-2.98-3.61-1.2-2.81,1.37-6.14,3.71-4.88,2.29,1.23,3.69,4.08,5.2,6.41,1.9,1.94,3.34,4.42,4.97,6.69,3.02,4.65,7.46,7.44,10.79,11.69,3.72,5.18,7.43,10.38,10.83,15.89,2.35,3.58,4.61,7.26,6.86,10.94,1.49,2.26,3.1,4.42,4.2,7.02,2.18,4.09,4.63,8.02,5.91,12.72,1.92,5.88,3.85,11.83,5.03,18.01.34,2.66.98,5.25,1.41,7.89.32,3.17.67,6.34,1.07,9.5.63,4.79,1.06,9.61,1.19,14.47,0,.23,0,.45-.02.66-.2,2.16-1.81,3.22-3.27,3.01Z"/><path d="M292.34,92.96c-.12-.02-.24-.04-.36-.08-2.03-.68-2.68-3.63-4.16-5.24-1.58-1.92-3.23-3.76-4.94-5.51-2.48-2.26-4.78-4.78-7.04-7.38-1.45-1.5-2.65-3.36-4.33-4.52-6.08-6.02-11.63-12.81-17.8-18.7-3.71-4.08,1.69-10.34,4.28-4.85,4.77,4.46,9.04,9.63,13.63,14.36,1.71,2.04,3.68,3.64,5.53,5.47.86.99,1.67,2.06,2.58,2.99,5.04,6.04,11.38,10.59,15.27,17.96.4.69.53,1.48.46,2.23-.17,1.84-1.54,3.51-3.13,3.28Z"/><path d="M318.28,129c-.33-.05-.66-.18-.98-.4-1.43-.87-1.56-3.01-2.25-4.58-.84-2.05-1.79-3.81-2.69-5.79-4.16-8.45-8.61-16.68-13.19-24.79-3.2-5.47-6.92-10.41-10.61-15.36-4.68-5.68-9.1-11.76-14.59-16.28-2.57-2.19-5.03-4.58-7.68-6.63-2.66-1.84-4.88-4.45-7.11-6.98-.91-1.24-2.18-1.62-3.34-2.32-2.34-2.47-1.13-5.99,1.31-6.43.05.04.09.09.13.13-.01-.01-.03-.02-.04-.04.19.18.37.37.55.55.16.16.34.28.5.43,0,0,.01.01.02.02,0,0,0,0,0,0,0,0,0,0,0,0,0,0,0,0,0,0,0,0,0,0,0,0h0s0,0,0,0h0c.29.25.6.48.89.72.08.06.16.13.23.19.04.04.09.07.13.11.16.14.32.29.48.44.26.24.52.49.79.71.44.36.91.66,1.37.97.2.19.4.39.61.57.18.16.37.31.55.46.13.11.26.22.4.32.16.12.33.23.49.35.29.19.58.37.87.56.05.04.1.08.15.11.41.35.81.71,1.21,1.05.08.07.17.12.27.17.1.08.2.16.31.23.12.07.23.14.35.21.16.1.32.21.48.33.05.04.1.07.14.11,0,0,.02.01.02.02.15.12.31.23.46.34.05.05.1.1.15.14.27.25.55.49.83.72.1.08.19.16.3.23.09.07.19.13.28.19,3.02,2.53,6.01,5.11,8.97,7.77,3.96,3.62,7.47,7.92,10.9,12.29,4.81,5.88,9.39,12.07,13.44,18.79,4.44,7.55,8.44,15.44,12.58,23.25,1.86,4.09,4.12,7.96,5.35,12.44.15.5.19,1,.14,1.48-.18,1.89-1.69,3.42-3.23,3.2Z"/><path d="M303.52,88.75s.01.02.02.03c0,0-.01-.02-.02-.03Z"/><path d="M303.51,88.73s0,.01.01.02c0,0,0-.01-.01-.02Z"/><path d="M303.5,88.72s-.02-.03-.03-.04c.01.02.02.04.04.06,0,0,0-.01-.01-.02Z"/><path d="M303.45,88.63s.02.03.03.04c0-.01-.02-.03-.03-.04Z"/><path d="M152.49,37.63c-6.3,3.39-12.8,6.1-19.18,9.22-6.87,2.79-13.08,7.34-19.28,11.85-8.18,5.87-15.92,12.61-23.26,19.98-6.05,6.36-12.16,12.66-17.9,19.44-5.17,6.11-10.56,11.96-15.18,18.65-3.83,5.22-6.88,11.13-10.03,16.96-2.91,4.8-5.62,9.75-8.42,14.65-1.52,2.49-2.91,5.08-4.24,7.73-.71,1.1-.6,2.67-1.56,3.57-.61.65-1.43.94-2.22.82-.34-.05-.67-.17-.98-.38-2.51-1.72-1.75-4.98-.33-7.37,1.31-2.64,2.65-5.26,4.16-7.73,3.48-6.17,7.05-12.24,10.53-18.41,7.07-14.56,17.56-25.7,27.37-37.32,12.7-13.98,25.77-27.6,40.68-37.88,3.7-2.53,7.3-5.31,11.12-7.54,5.64-2.99,11.4-5.64,17.18-8.17,3.28-1.52,6.5-3.25,9.75-4.86,2.66-1.05,7.03-4.4,8.54.21.13.64.17,1.19.13,1.67-.32,3.42-4.68,3.42-6.87,4.9Z"/><path d="M181.01,26.3c-4.04,1.03-8.11,1.94-12.06,3.44-4.22,1.14-8.43,2.35-12.48,4.24-6.19,2.8-12.08,6.51-18,10.06-3.01,1.8-5.95,3.78-8.8,5.95-1.97,1.17-4.4,4.56-6.58,4.24-.69-.1-1.35-.56-1.97-1.58-.87-1.59-.47-3.91.84-4.94,2.3-1.93,4.63-3.82,7.04-5.53,9.25-6.23,18.77-12.14,28.77-16.29,4.3-1.79,8.81-2.59,13.14-4.27,1.3-.45,2.63-.7,3.95-1.01,2.22-.5,4.4-1.53,6.69-1.46,2.51.06,3.63,2.2,3.56,4.17,0,.09,0,.19-.02.28-.19,2-1.62,3.72-4.08,2.69ZM183.63,19.96s-.02-.02-.03-.03c0,0-.02,0-.03,0,.02.01.04.03.06.04Z"/><path d="M188.58,24.15c-1.27,2.26-4.67,1.66-6.7,2.31-4.69.76-9.35,1.81-13.96,3.15-16.33,4.52-32.13,12.76-45.74,24.89-2.56,2.29-5.12,4.6-7.55,7.1-1.23,1.27-2.45,2.56-3.65,3.86-.85,1.29-1.91,2.53-3.27,2.33-.22-.03-.45-.1-.68-.21-1.46-.63-2.27-2.78-1.72-4.57.88-2.52,3.02-3.91,4.56-5.76,3.1-3.27,6.34-6.19,9.58-9.08,17.07-15.08,37.29-24.03,57.9-28.11,2.77-.51,5.55-.94,8.33-1.44,1.96-.52,3.62,1.76,3.41,3.98-.05.54-.21,1.08-.51,1.57Z"/><path d="M192.33,25.78c-10.56.09-21.69,2.6-31.63,5.85-.41.13-.82.26-1.23.4-1.26.41-2.5.85-3.74,1.33.07,2.66-1.88,3.93-3.8,3.76-1.46.22-2.87.8-4.26,1.39-7.29,3.36-14.28,7.72-21.14,12.26-6.75,4.86-13.01,10.65-19.35,16.28-2.14,1.92-4.11,3.92-6.3,5.74-1,.93-2.3,1.83-3.53,1.65-.45-.06-.9-.28-1.31-.68-4.54-4.6,4.47-11.68,7.23-14.49,8.1-6.99,16.18-14.11,24.91-19.86,8.75-5.36,17.95-9.75,27.25-13.39,10.08-3.67,20.43-5.91,30.87-7.17,2.05.03,6.38-.95,7.81.74.74.78,1.01,1.9.91,2.97-.15,1.66-1.18,3.21-2.68,3.23Z"/><path d="M103.25,59.26s-.08.07-.12.11h0c.07-.06.13-.12.19-.18-.02.03-.05.05-.07.08Z"/><path d="M194.5,193.48c-1.52,3.29-3.64,6.01-5.84,8.62-3.86,4.78-8.61,8.65-13.79,10.82-4.07,1.31-8.42,2.45-12.64,1.84-.23-.03-.47-.07-.7-.12-3.32-.77-6.65-1.67-9.79-3.22-7.13-3.83-13.92-9.31-18.61-17.11-2.88-4.69-5.49-9.86-6.88-15.51-.45-1.86-.78-3.77-.93-5.73-.23-3.94-.64-7.94.06-11.84.97-5.66,2.25-11.3,4.91-16.13,6.83-13.35,18.98-17.24,31.05-15.36,8.88,1.22,16.84,6.85,23.78,13.53,1.75,1.71,3.52,3.42,5.09,5.38,2.54,3.3,4.53,7.19,6.59,10.96,3,.07,1.83,12.19,2.24,15.07.15,1.85.14,3.55,0,5.17-.46,4.93-2.22,9-4.54,13.65ZM128.36,164.35c.03,3.91.26,7.85,1,11.62,1.64,7.06,5.18,13.27,9.07,18.69,6.41,8.02,14.69,13.77,23.68,15.77,4.44.85,9.08-.23,13.34-1.86,5.73-2.82,10.52-7.77,14.53-13.49,2.23-3.71,4.11-7.82,5.46-12.13,1.09-4.86.27-9.97.26-14.94-.05-1.57-.01-3.15-.29-4.69-.33-1.17-.59-2.7.44-3.44-1.94-3.24-3.69-6.66-5.87-9.66-2.97-3.64-6.38-6.72-9.87-9.56-5.57-4.65-11.95-7.8-18.58-8.75-2.41-.35-4.85-.4-7.3-.13-11.41.35-21.63,9.93-24.46,23.74-.48,2.61-1.08,5.2-1.33,7.86-.03.32-.05.64-.07.97Z"/><path d="M199.35,183.89c-2.67,7.33-6.91,13.99-12.44,18.28-4.3,4.48-9.5,7.76-15.06,8.85-3.88,1.1-7.89,1.19-11.83.63-1.48-.21-2.96-.52-4.41-.9-4.15-1.49-8.08-4.06-11.55-7.22-3.47-3.53-7.07-6.99-9.9-11.36-2.84-5.13-5.66-10.49-7.13-16.48-.1-.42-.2-.85-.29-1.28-.88-3.53-.96-7.25-.74-10.91-.06-4.59.8-9.21,2.08-13.49.65-1.68,1.66-3.08,2.61-4.51,1.76-3,3.87-5.58,5.86-8.32,2.99-3.42,6.85-5.62,10.7-7.14,12.69-4.92,26.93,2.4,37.67,10.72,3.9,3.2,7.86,6.72,10.6,11.49,3.73,6.89,6.36,15.75,5.58,24.12-.24,2.57-.8,5.1-1.75,7.5ZM131.54,163.87c-.36,4.13.19,8.24,1.39,12.11,1.81,4.75,4.01,9.65,6.83,13.57,3.99,4.6,8.18,9.41,13.12,12.26,8.19,5.05,19.72,3.99,27.25-2.44,2.68-2.89,5.83-5.14,8.05-8.63,3.53-5.49,6.94-12.08,6.21-19.41-.18-1.87-.5-3.71-.94-5.51,0,0,0,0,0,0-1.5-6.13-4.46-11.65-8.73-15.4-6.26-6.26-17.38-13.32-27.16-14.72-3.59-.51-6.99-.27-9.91,1.06-2.48,1.13-4.78,2.71-6.89,4.65-2.63,3.47-5.15,7.06-7.38,10.96-.87,2.48-1.42,5.19-1.68,7.92-.11,1.2-.17,2.41-.17,3.6Z"/><path d="M168.73,174.08c-2.96,2.19-6.55,2.61-9.91,1.99-.36-.01-.73-.04-1.09-.1-4.36-.62-8.49-4.14-9.76-9.32-.22-.88-.35-1.82-.39-2.79-1.34-12.42,6.35-19.68,15.86-16.81,3.22.8,6.52,2.89,8.06,6.64,1.57,3.38,2.44,7.57,2.08,11.41-.34,3.68-1.81,7.03-4.86,8.98Z"/><path d="M258.8,103.83h.02s-.01,0-.02,0Z"/><path d="M258.62,103.57s.08.09.12.13c-.04-.04-.08-.09-.12-.13Z"/><path d="M260.68,103.65c.03-.05.06-.1.1-.15-.03.05-.06.1-.1.15Z"/><path d="M260.73,103.42s0-.03.01-.04c0,.01,0,.03-.01.04Z"/><path d="M234.55,71.82c-1.18,8.45-7.21,14.15-12.36,19.03-6.51,5.57-13.64,10-20.93,13.79-9.25,4-18.69,7.63-28.31,9.91-6.71.85-13.52,1.46-20.23.49.01,0,.2.05.2.05-15.98-3.16-15.8-21.9-7.8-35.54,3.91-6.52,9.25-11.43,14.87-15.49,5.71-4.37,11.74-7.95,18.19-10.24,4.8-2.04,9.78-3.15,14.81-3.87,6.83-1.29,13.79-1.4,20.56.46,1.46.47,2.95.87,4.43,1.3.37.19.75.38,1.13.55.23.1.46.21.68.3.12.05.24.1.35.14.12.05.24.1.36.15h-.02s.03,0,.04.01c0,0-.01,0-.02-.01.02,0,.03.02.05.02,0,0-.01,0-.02-.01.03.01.05.02.08.04,0,0,0,0,0,0,.01,0,.03.01.05.02,0,0,0,0,0,0,0,0,.02,0,.03.01,0,0,0,0,0,0,.02,0,.04.02.06.03h0s.03.01.04.02c.01,0,.02.01.03.02h0s0,0,0,0c0,0,0,0,0,0,0,0,0,0,.01,0,0,0,0,0,0,0,0,0,0,0,0,0h0c.09.05.18.1.27.15.21.11.42.24.62.37.21.13.41.26.62.38.22.13.45.26.67.39.2.11.4.23.59.36.07.05.14.09.21.14,0,0,0,0,0,0,0,0,0,0,0,0t0,0h0c.14.09.29.19.43.29,0,0,.01,0,.02.01,0,0,0,0,.01,0h0c.32.21.63.42.95.62.34.21.67.42,1,.64,0,0-.01,0-.02-.01.37.25.73.51,1.1.75,0,0,0,0,0,0,0,0,.01,0,.02.01h0s0,0,0,0,0,0,0,0,0,0,0,0t0,0c.17.11.34.22.52.32.18.11.37.23.55.35.17.12.34.23.51.35.06.04.12.08.18.13.97.94,1.89,1.97,2.65,3.18,1.84,2.83,3.32,5.7,2.98,9.35-.03.34-.08.69-.15,1.05ZM174.22,110.45c9.12-2.66,18.19-5.78,26.98-9.85,9.82-5.53,20-11.57,27.26-21.72,2.05-3.13,4.07-7.6,2.77-11.66-1.36-2.99-3.25-5.44-5.53-7.36-.74.2-1.48-.37-1.74-1.23-.58-.3-1.24-.66-1.43-1.45-4.81-1.73-9.73-3.36-14.72-4.07-2.58-.37-5.18-.5-7.8-.27-13.13,1.08-26.31,5.07-37.54,13.8-5.94,4.22-11.73,9.27-15.6,16.41-5.95,11.32-6.5,25.91,6.62,28.31,0,0-.2-.05-.2-.05,6.95.82,14.03.36,20.93-.87Z"/><path d="M224.25,54.56s-.01,0-.02-.01h.02s0,.01,0,.01Z"/><path d="M220.81,53s0,0,0,0c0,0,0,0,.02,0,0,0,0,0-.01,0Z"/><path d="M197.99,56.72c.18-.09.36-.14.55-.15-.18.05-.36.1-.55.15Z"/><path d="M241.29,176.79c-.77,4.71-1.25,9.5-2.32,14.12-1.88,7.59-3.81,15.16-5.64,22.77-2.51,8.23-4.98,16.57-8.37,24.32-2.56,5.58-5.86,10.51-8.82,15.75-2.15,3.83-4.68,7.29-7.18,10.77-2.24,3.1-5,7.66-8.7,7.13-.11-.02-.22-.04-.33-.06-5.49-3.22,2.43-15.6,4.76-19.23,3.38-5.35,6.85-10.62,9.91-16.26,3.15-5.47,5.55-11.49,7.93-17.5,1.46-3.8,3.29-7.78,3.28-12.08-4.24,3.59-6.51,9.77-9.28,14.96-1.93,4.02-4.43,7.55-6.8,11.18-2.82,3.91-5.49,8.31-9.24,10.91-4.32,2.43-5.35-2.01-2.74-5.83,3.3-5.72,6.47-11.56,10.13-16.94,3.07-5.04,9.21-11.76,7.51-18.65-3.84,3.26-6.62,8.06-9.57,12.46-2.94,4.22-5.88,8.45-9.08,12.39-1.83,2.09-3.44,4.46-5.31,6.5-1.74,1.92-3.95,3.23-5.68,5.14-1.43,1.6-3.2,3.26-5.24,2.87-1.81-.4-3.15-2.79-2.72-5.02,1.66-8.24,13.75-20,18.92-26.15,2.13-2.66,4.21-5.43,6.14-8.34.22-.3.44-.62.65-.93.73-1.08,1.47-2.16,2.13-3.31.12-.21.23-.41.35-.62.02-.03.03-.06.05-.09.37-.59.76-1.17,1.12-1.77.39-.66.81-1.32,1.17-2.01.33-.64.64-1.29.91-1.98.24-.62.45-1.26.7-1.87.21-.49.42-.97.59-1.48.14-.42.29-.84.44-1.26.18-.49.32-1,.47-1.51.13-.46.24-.93.37-1.39,0-.01,0-.03.01-.04,0,0,0,0,0,0,.12-.39.23-.78.33-1.17.09-.35.17-.71.25-1.07.15-.65.23-1.31.34-1.97.04-.21.09-.42.14-.63.13-.56.29-1.12.4-1.69.12-.6.27-1.18.39-1.78.13-.62.27-1.23.37-1.86.09-.57.12-1.16.23-1.73-.01.08-.03.16-.04.24.11-.57.2-1.14.26-1.72.03-.34.06-.67.09-1.01.02-.31.04-.62.06-.93.02-.33.02-.66.02-1,0,0,0,.01,0,.02,0-.62-.02-1.23-.09-1.85-.05-.42-.12-.84-.2-1.26-.05-.27-.12-.54-.16-.82,0-.03,0-.05-.01-.08,0,.03,0,.06.01.08,0-.03,0-.07-.01-.1h0c-.04-.33-.1-.67-.2-1-.06-.33-.13-.65-.2-.97,0,0,0,0,0-.01,0-.13,0-.26-.02-.39-.09-2.23-.1-4.52.1-6.73.6-5.53,5.46-8.89,8.08-3.14,1.08,3.2,1.35,6.77,1.7,10.19.24,3.97.89,7.91.76,11.9.11,2.63-.65,7.93.65,9.95,3.24-1.04,5.03-5.68,6.16-9.3,1.1-3.85,1.74-7.87,2.11-11.92.86-7.22,1.04-15.03-2.04-21.53-1.27-3.28-3.76-5.3-5.63-7.97-3.02-4.53-.28-8.2,3.82-5.64,4.21,2.78,7.84,7.15,10.03,12.42,3.79,9.3,3.46,20.29,2.49,30.66-.22,2.33-.47,4.63-.71,6.87ZM200.45,269.71c.14.04.28.07.31.06,3.73-.66,5.83-5.26,8.26-8.36,2.56-3.42,4.87-7.11,7.03-10.93,3.8-6.41,7.75-12.76,10.2-20.17,1.97-6.04,4.14-12,5.81-18.19,1.29-5.26,2.45-10.56,3.89-15.76,3.65-14.08,6.95-37.27,3.7-51.53-1.36-5.51-4.17-10.37-7.89-13.83-1.62-1.32-3.59-3.7-5.65-2.75-.08.06-.15.12-.16.24h0c.36,3.19,2.95,4.78,4.5,7.04,6.19,8.38,5.47,20.44,4.01,30.84-.99,6.02-2.25,12.62-6.13,16.83-1.09,1.07-2.49,2.57-3.95,1.78-2.75-2.18-1.3-9.68-1.56-13.3-.14-4.24-.66-8.45-1-12.67-.61-2.88-.29-7.94-3.17-8.83-3.11.1-3.3,4.58-3.3,8.04-.02.07-.04.15-.05.23-.07.47-.1.96-.1,1.44,0,.3.04.59.07.88,0,.03,0,.06,0,.1,0-.02,0-.04,0-.07,0,0,0,0,0,0,0,.33.02.64.1.96.04.18.09.35.13.53.04.18.07.37.09.55.02.29.05.59.05.89,0,.16,0,.32,0,.48,0,.19.03.38.05.56.03.24.08.46.12.7,0,.03,0,.06,0,.09,0,.23-.02.46-.03.69-.02.4-.01.8-.04,1.2,0,.08-.02.16-.02.24-.01.14-.03.28-.04.43-.04.64-.02,1.28-.05,1.91-.02.19-.03.39-.05.58,0,.03-.01.07-.02.1,0-.03,0-.06.01-.08,0,0,0,0,0,0-.03.2-.05.4-.07.6-.02.16-.03.31-.05.47-.03.18-.07.36-.08.55-.02.25-.05.49-.08.74-.07.4-.14.8-.2,1.2-.02.16-.01.33.02.48-.55,3.86-1.4,7.67-2.52,11.3-2.04,6.76-5.43,12.63-9.13,18.14-6.48,9.93-15.2,17.14-21.67,27.1-1.11,1.82-2.27,3.92-2.44,6.24.23,2.42,2.54,2.42,3.81,1.16,2.3-2.5,4.94-4.42,7.32-6.77,3.17-3.82,6.31-7.71,9.32-11.74,2.5-3.55,5.04-7.06,7.39-10.78,1.63-2.33,6.06-9.14,8.42-9.22,3.6,1.5.97,9.58-.43,12.34-4.01,7.15-8.97,13.41-12.84,20.7-.48,1.35-5.61,8.36-4.11,9.04,3.49-.34,6.99-6.51,9.34-9.5,2.13-3.09,4.2-6.25,6.16-9.52,2.77-5.2,5.14-10.78,8.47-15.49,1.36-2.05,2.97-3.33,4.04-3.18,1.03.15,1.57,1.61.96,5-3.67,14.09-10.29,26.89-17.67,38.45-3.33,5.52-7.48,10.59-9.36,17.2-.16.7-.43,1.58-.51,2.4-.08.87.06,1.68.8,2.14Z"/><path d="M211.82,183.71s0,0,0,0v-.04s0,.03,0,.05Z"/><path d="M211.82,183.71h0s0,0,0,0c0,0,0,0,0,0Z"/><path d="M212.76,179.41s0-.05.01-.07c0,.02,0,.05-.01.07Z"/><path d="M214.22,163.55s0,.07.01.1c0-.03,0-.07-.01-.1Z"/><path d="M214.59,165.55s-.02,0-.03,0c-.05-.42-.12-.83-.2-1.24-.05-.27-.12-.54-.16-.82v-.07s0,.01,0,.02c0,0,0-.02,0-.03,0,0,0,0,0-.01,0-.01,0-.02,0-.03,0,0,0,0,0,0-.04-.33-.1-.66-.2-.97-.06-.18-.13-.36-.19-.54,0-.13-.01-.25-.01-.38,0-.01,0-.03,0-.04.32-.56.9-.79,1.46-.69,0,.02,0,.04,0,.07,0,.03,0,.06,0,.1,0-.02,0-.04,0-.06,0,.33.02.64.1.96.04.18.09.35.13.53.04.18.07.37.09.55.02.29.05.59.05.89,0,.16,0,.32,0,.48,0,.19.03.38.05.56.02.17.05.33.08.49-.37.2-.78.3-1.16.24Z"/><path d="M214.22,163.55s0,.07.01.1c0-.03,0-.07-.01-.1Z"/><path d="M215.5,171.29c-.02.16-.03.31-.05.47-.03.18-.07.36-.08.55-.01.14-.03.28-.04.42-.36.47-.81.77-1.26.71.08-.54.11-1.09.21-1.63-.01.08-.03.16-.04.24.11-.57.2-1.14.26-1.72.03-.34.06-.67.09-1.01.02-.27.04-.55.05-.82.38.07.74.28,1.01.63,0,.41,0,.81-.03,1.22-.01.14-.03.29-.05.43.01-.06.02-.13.03-.19-.04.24-.07.47-.09.71Z"/><path d="M212.08,182.81c.03-.09.05-.19.07-.28.09-.35.17-.71.25-1.07.15-.65.23-1.31.34-1.97.04-.21.09-.42.14-.63.01-.05.02-.09.03-.14.4.17.76.59.96,1.34.08.29.09.57.07.84-.11,1.13-1.01,1.99-1.87,1.9Z"/><path d="M208,194.41c-.09-.01-.18-.04-.27-.08.21-.35.42-.71.61-1.08.33-.64.64-1.29.91-1.98.02-.04.03-.08.05-.13.37.42.5.94.45,1.44-.09,1.01-.89,1.95-1.74,1.82Z"/><path d="M202.77,202.58c-.1-.01-.2-.04-.29-.08.36-.47.71-.96,1.04-1.45.3-.45.6-.89.9-1.34.01.03.03.06.04.09.12.32.15.65.12.96-.1,1.07-.96,1.95-1.82,1.83Z"/><path d="M243.36,170.95c-1,9.94-2.87,19.71-5.24,29.28-1.27,4.98-2.42,10.03-3.89,14.92-1.37,4.27-2.7,8.58-4.22,12.78-2.85,6.92-6.32,13.41-9.64,19.99-2.68,5.51-5.56,10.97-9.34,15.43-2.49,2.58-4.44,6.18-7.59,7.58-1.09.59-2.37,1.13-3.56.96-.55-.08-1.08-.31-1.56-.76-4.79-4.92,5.71-19.66,8.4-24.06,3.28-5.2,6.49-10.46,9.68-15.74,1.46-2.4,2.6-5.07,3.72-7.73,1.16-2.7,2.14-5.51,2.72-8.49.61-2.64,2.19-4.8,2.64-7.5-3.16,2.71-4.7,7.24-6.9,10.98-3.18,5.49-6.43,10.94-9.96,16.09-.74,1.14-1.77,2.48-2.47,3.51-1.24,2.15-2.55,4.27-4.37,5.72-1.2.94-2.63,1.73-4.08,1.55-1.43-.17-2.67-1.82-2.41-3.65.56-3.26,2.49-5.82,4.05-8.42,3.25-5.3,6.68-10.43,9.69-15.95,1.31-2.6,2.64-5.17,4.05-7.67.77-1.57,1.86-2.91,2.45-4.61.42-.95.47-3.07-.82-2.12-2.71,2.14-4.64,5.46-6.69,8.46-3.02,4.95-5.41,10.65-9.34,14.64-2.77,2.72-5.76,5.12-8.42,8.02-3.22,3.2-9.18,11.44-13.04,5.59-1.74-4.46,2.37-8.82,4.41-12.01,3.41-5.15,7.49-9.52,11.37-14.12,2.83-3.62,5.19-7.75,7.89-11.51,2.66-4.08,5.03-8.42,7.1-13,1.63-3.28,3.14-6.71,4.04-10.41,1.15-5.43,1.72-11.06,1.82-16.66.12-2.38.33-4.73.12-7.11-.2-3.27.49-6.4,3.44-7.08,1.27-.21,2.75-.65,3.92.18,2.2,2.07,2.69,10.9,3.16,14.4.26,2.64.68,5.26.76,7.93.08,2.01,0,4.02-.08,6.03-.08,1.77-.37,4.11.69,5.5,2.62-1.76,3.69-5.7,4.96-8.84,1.22-3.78,2.11-7.78,2.38-11.85-.12-5.32-.27-10.87-1.52-15.96-.74-3.37-2.4-6.22-4.34-8.7-1.21-1.66-2.64-3.18-3.41-5.24-1.56-3.61.87-6.73,3.85-6.76,2.59.04,5.08,1.51,7,3.6,5.61,6.14,8.6,15.38,9.16,24.51.39,4.93.21,9.89-.25,14.8-.11,1.17-.23,2.33-.37,3.5ZM200.21,268.28c1.18-.04,2.29-.83,3.35-1.42,1.35-1.03,2.33-2.62,3.51-3.91,4.98-5.23,8.45-12.08,11.81-18.91,2.8-5.57,5.7-11.06,8.15-16.88,1.67-4.25,2.96-8.73,4.39-13.11,4.02-14.36,7.61-29.04,9.09-44.17,1.19-10.49,1.41-21.92-2.84-31.45-1.85-3.78-3.99-7.78-7.4-9.56-1.18-.61-2.83-1.2-3.85.05.36,2.02,1.84,3.33,2.87,4.83,1.21,1.61,2.39,3.28,3.36,5.13,2.44,5,3.03,11.01,3.35,16.7.09,3.02.38,6.07-.15,9.05-.58,3.88-1.45,7.71-2.81,11.29-1.46,3.9-5.39,13.07-9.47,8.28-2.14-3.13-1.18-7.55-1.18-11.29.09-3.48-.45-6.89-.8-10.32-.18-1.65-.35-3.31-.58-4.96,0-.08-.01-.16-.02-.23-.02-.21-.05-.41-.07-.62-.02-.31-.03-.61-.05-.92-.02-.31-.08-.61-.12-.91-.03-.18-.04-.36-.06-.53-.03-.22-.07-.44-.11-.65-.04-.19-.07-.38-.11-.56-.04-.17-.09-.33-.15-.49,0-.03-.01-.05-.02-.08-.03-.11-.07-.21-.11-.31-.08-.31-.25-.57-.45-.77,0,0,0,0,0,0,0,0,0,0,0,0,0,0,0,0,0,0,0,0,0,0,0,0,0,0,0,0,0,0,0,0,0,0,0,0,0,0,0,0,0,0,0,0,0,0,0,0-.09-.09-.19-.16-.3-.22-.03-.02-.07-.04-.1-.05-.18-.1-.39-.14-.59-.14-.18,0-.36.04-.53.12-.13.07-.26.15-.37.26-.15.15-.27.36-.36.57-.18.4-.31.84-.42,1.28l.02-.07c-.06.23-.12.46-.16.7-.03.19-.06.38-.08.57-.02.19-.05.38-.06.57-.01.19-.01.37-.01.56,0,.15.01.3.02.45,0,.15.01.3.01.46,0,.15,0,.31,0,.46,0,.16,0,.33,0,.49,0,.01,0,.02,0,.04,0,.25-.02.5-.02.75h0c0,.26-.01.53-.02.8,0,.29,0,.58,0,.86,0,.23,0,.46,0,.7,0,.21,0,.42,0,.63,0,.27,0,.54,0,.81-.01.6-.05,1.2-.1,1.8-.05.6-.09,1.19-.14,1.79-.03.42-.06.84-.08,1.26-.02.39-.04.78-.05,1.17-.02.4-.04.79-.06,1.19-.02.4-.03.81-.05,1.21-.02.42-.05.83-.08,1.25,0,.14-.01.29-.02.43-.47,4.24-1.23,8.44-2.75,12.28-3.08,7.79-6.89,15.21-11.47,21.79-2.43,3.46-4.56,7.26-7.24,10.44-3.45,4.04-7.03,7.94-10.11,12.43-1.57,2.62-4.46,5.37-4.79,8.67,2.04,1.89,8.34-6.54,10.24-8.12,3.22-3.29,7.03-5.82,9.65-9.93,2.4-3.64,4.28-7.76,6.66-11.42,2.42-3.22,6.12-10.38,10.17-8.98,2.17,1.06,2.8,4.45,1.86,6.92-.96,2.83-2.71,5.09-4.01,7.68-2.63,5.11-5.33,10.15-8.43,14.85-1.69,2.72-3.39,5.43-5.09,8.14-.89,1.57-1.93,3.07-2.49,4.88,3.58-1.11,5.1-5.85,7.57-8.81,3.98-5.76,7.49-11.65,11-17.81,1.38-2.58,2.54-5.37,4.26-7.65,1.29-1.62,2.7-3.74,4.68-3.81.09,0,.19,0,.28.02,1.4.2,2.43,1.87,2.31,3.62-.07,2.82-1.52,5.15-2.43,7.63-.44,1.27-.67,2.62-.99,3.94-1.04,3.59-2.54,6.95-4.02,10.29-1.82,3.94-4.2,7.42-6.39,11.04-1.56,2.42-2.97,4.99-4.55,7.4-2.19,3.64-9.41,13.83-9.9,19.11-.05.54-.03,1.03.07,1.45ZM198.05,241.87h0s-.07,0-.1,0c.04,0,.07,0,.11,0Z"/><path d="M220.47,90.28c-7.95,6.37-17.01,10.27-25.81,14.43-3.23,1.63-6.55,2.95-9.77,4.6-2.42,1.17-5.03,1.47-7.54,2.26-3.61,1.07-7.22,2.24-10.9,2.85-3.61.29-7.3.51-10.9,0-.19-.03-.38-.06-.57-.09-3.74-.63-7.67-1.27-10.53-4.64-1.87-1.84-2.5-2.95-3.12-5.84-.79-3.36-1.04-6.88-.18-10.26.68-4.73,2.9-8.72,5-12.65,2.23-4.46,5.37-7.99,8.52-11.43,1.79-2.32,3.64-4.61,5.76-6.45,6.53-5.6,14.36-8.32,21.9-11.06,9.22-2.84,18.82-2.49,28.21-1.32,1.26.22,5.79.97,10.09,2.22h0s0,0,.01,0h0s.01,0,.02,0c0,0,0,0,0,0,0,0,0,0,0,0,0,0,0,0,0,0,0,0,0,0,0,0,0,0,0,0,0,0,0,0,0,0,0,0,.02,0,.03.02.05.02,0,0,0,0,0,0,.02,0,.04.02.06.03,0,0-.01,0-.02-.01.01,0,.02.01.03.02h0s.01,0,.02,0c0,0,0,0,0,0h0s0,0,0,0c.09.05.18.1.27.15.21.11.42.24.62.37.21.13.41.26.62.38.22.13.45.26.67.39.2.11.4.23.59.36.07.05.14.09.21.14,0,0,0,0,0,0h0s0,0,0,0h0c.14.09.29.19.43.29,0,0,.01,0,.02.01,0,0,0,0,.01,0h0c.32.21.63.42.95.62.34.21.67.42,1,.64,0,0-.01,0-.02-.01.37.25.73.51,1.11.75,0,0,0,0,0,0,0,0,.01,0,.02.01h0s0,0,0,0c0,0,0,0,0,0,.17.11.34.22.52.33.18.11.37.23.55.35,0,0,0,0,0,0,0,0,0,0,0,0,0,0,0,0,0,0,.17.12.33.23.5.35.11.08.23.16.34.24.06.06.12.12.18.17,0,.43-.15.88-.45,1.34,3.73,3.73,4.94,7.62,4.59,11.4-.7,7.46-7.5,14.49-13.07,19.01ZM144.64,103.49c.63,2.63,1.98,3.5,3.58,5.12,2.7,1.7,5.82,1.79,8.76,2.37,2.98.1,5.98.12,8.96-.14,3.08-.48,6.08-1.45,9.1-2.3,2.69-.95,5.49-1.34,8.17-2.35,4.68-2.19,9.36-4.38,14.05-6.57,2.82-1.34,5.67-2.57,8.43-4.09,7.39-4.04,14.92-8.34,20.57-15.68,5.33-6.45,6.38-12.15-.13-18.14-1.97-1.61-4.05-3.06-6.13-4.46-2.78-1.35-5.67-2.23-8.62-2.73h-.04c-4.64-.67-9.35-.28-14.01-.26-9.53.13-19.21,1.9-27.81,7.21-4.74,2.56-8.78,6.64-12.77,10.64-4.43,5.94-8.73,12.03-11.6,19.37-.61,1.81-1.11,3.76-1.29,5.71-.2,2.14-.03,4.29.78,6.3Z"/><path d="M223.79,54.78s0,0,0,0c0,0,0,0,0,0Z"/><path d="M220.66,52.93s0,0,0,0c0,0,0,0,0,0,0,0,0,0,0,0,0,0,0,0,0,0Z"/><path d="M228.38,57.77s0,0,0,0c0,0,0,0,.01,0,0,0,0,0,0,0Z"/><path d="M220.8,53h0s.01,0,.02,0c0,0-.01,0-.02,0Z"/><path d="M223.65,74.39c-1.55,1.38-2.8-.62-2.36-2.55.07-1.46-.34-2.85-.61-4.26-.28-1.35-.36-2.83-1.01-4.01-1.24-1.9-3.88-1.98-4.83.35-1.45,3,.08,6.49-.1,9.72-.18,4.72-1.31,10.21-4.44,13.23-1.9,1.51-4.48,1.14-6.13-.73-1.91-2.16-2.21-5.71-2.61-8.72-.11-1.75.09-3.51.3-5.27.29-2.45.57-4.89,0-7.27-.99-3.59-4.45-1.88-5.1,1.05-.7,4.03.09,8.2.69,12.17.88,4.68.93,9.94-1.69,13.82-2.25,3.57-7.79,5.87-10.37,1.72-1.59-2.69-1.91-6.17-1.84-9.42-.08-3.23,2.85-23.1-3.1-18.36-7.34,9.91.02,17.54-.39,28.3-.47,8.95-9.29,12.44-12.59,3.71-1.17-5.4-.73-11.11-.87-16.65-.09-2.76-.08-5.79-1.19-8.26-4.15,5.26-2.41,14.14-2.1,20.78.65,6.11-2.18,11.49-7.45,10.73-.05,0-.11-.02-.16-.03-1.84-.75-3.65-2.26-4.74-4.27-1.82-4.72-1.79-10.23-1.08-15.29.66-2.31,3.45-1.09,2.79,1.19-.36,4.21-.71,9.04,1.15,12.77,1.63,1.84,3.09,2.84,5.15,1.25,2.15-2.01,1.36-5.94,1.19-8.82-.26-3.3-.41-6.62-.32-9.94,0-4.01,2.21-13.21,6.46-11.98,5.26,3.03,2.24,20.38,3.86,26.91.63,2.59,3.42,4.07,5.16,2.1,4.88-5.37-1.48-16.15-1.14-23.02-.11-3.45,1.06-6.51,2.52-9.34,1.61-3.78,5.08-6.29,8.13-3.25,4.02,4.62,1.7,15.54,1.66,21.71.06,4.9.55,9.85,5.5,6.78,5.09-4.02,2.4-12.03,1.81-17.96-.27-3.58-.66-7.64,1.08-10.77,1.34-2.18,3.59-3.85,5.85-3.27,5.22,1.7,4.54,8.65,3.99,14.23-.1.98-.19,1.93-.25,2.79.18,2.41.44,7.04,2.64,7.82,2.97.82,4.21-6.04,4.59-8.71.21-1.69.03-3.44-.16-5.19-.3-2.86-.6-5.7.82-8.25,2.28-5.28,9.17-4.13,10.51,1.5.38,2.35,1.61,6.16,1.35,8.95-.07.75-.25,1.43-.58,1.98Z"/><path d="M296.22,135.98c-1.8,2.59-4.36,4.62-7.21,4.21-.05,0-.11-.02-.16-.03-3.78-.5-7.35-2.7-9.91-6.18-3.3-4.27-6.1-9.24-7.61-14.89-3.7-11.66,2.6-18.4,11.77-14.74,4.49,2.22,8.07,7.12,11.22,11.52,1.22,2.27,3.8,6.05,3.84,8.75,0,.01,0,.03,0,.04,0,0,0,0,0,0,0,0,0-.02,0-.03,0,.01,0,.03,0,.04.64,1.56.84,3.23.69,4.86-.22,2.4-1.21,4.71-2.64,6.43ZM274.38,118.83c1.19,4.07,3.16,7.66,5.43,10.92,2.32,3.61,5.55,6.34,9.32,6.78,3.02.46,5.68-3.35,6.71-6.51.37-1.43.06-2.49-.27-3.46-.27-.8-.54-1.53-.44-2.37-1.8-4.52-4.47-8.36-7.51-11.67-1.49-1.76-3.07-3.47-4.99-4.49-.89-.48-1.84-.8-2.81-.94-1.18-.17-2.38-.08-3.53.28-2,.54-2.83,2.21-3.01,4.22-.22,2.37.44,5.2,1.1,7.23Z"/><path d="M298.17,124.64s0,0,0-.01c0-.06.01-.11.01-.17,0,.02,0,.04,0,.06,0,.04-.01.08-.02.12Z"/><path d="M298.11,123.76s.01.04.02.06h0c.02.09.05.19.05.29-.01-.12-.03-.23-.07-.35Z"/><path d="M86.51,243.26c-1.76,3.47-5.3,4.65-8.43,4.67,0,0,.01,0,.02,0,0,0,.01,0,.02,0-.08,0-.16,0-.24,0,0,0,0,0,.01,0,0,0-.01,0-.02,0,0,0,0,0,0,0,0,0,0,0,0,0,0,0,0,0,0,0h0c-.16,0-.49-.01-.71-.02.05,0,.1,0,.15,0-.42,0-.84-.04-1.25-.1s-.81-.13-1.21-.21c-5.03-.94-9.64-3.93-13.66-7.71-6.2-6.17-5.45-17.66,3.21-19.38,5.46-1.36,10.99,1.02,15.69,4.37,2.71,1.75,5.46,3.71,6.84,7.27.87,1.86,1.12,4.02.93,6.13-.16,1.75-.64,3.48-1.34,4.98ZM84.08,241.22c1.34-2.95,1.14-6.6-.7-9.14-1.19-1.99-3.19-2.65-4.75-4.04-2.86-2.01-5.99-3.68-9.26-4.15-1.09-.16-2.19-.18-3.31-.03-2.6.35-6.03,1.9-6,5.75.01,2.39.69,4.81,2.1,6.48,3.06,3.3,6.76,5.93,10.69,7.25,1.49.48,2.98.85,4.43.93,0,0,0,0,0,0,0,0,0,0,0,0h0s0,0,0,0c.33,0,.58.02.88.02-.08,0-.16,0-.23,0,2.21-.02,4.87-.58,6.15-3.08Z"/><path d="M77.88,247.93s0,0,0,0c0,0,0,0,0,0,0,0,0,0,0,0Z"/><path d="M113.75,110.13c-3.05,4.35-9.77,8.95-15.08,8.19-1.4-.2-2.7-.77-3.81-1.82-3.09-3.47-1.94-9.61.12-13.43,2.29-4.31,5.97-7.08,9.64-9.3,2.23-.99,7.88-5.2,9.49-1.82,1.8.42,2.76,2.73,3.68,4.5.43,1.17.54,2.38.43,3.6-.34,3.69-2.76,7.39-4.47,10.1ZM99.51,114.77c5.31-.3,10.54-3.88,13.5-9.37,1.79-3.86,3.78-6.02.65-9.83-.73-.33-1.39-.55-2.04-.65-1.14-.16-2.21.08-3.44.88-3.75,1.95-7.58,4.33-10.2,8.3-1,1.42-1.82,3.65-2.01,5.7-.25,2.69.58,5.08,3.54,4.96Z"/><path d="M114.15,113.29c-4.03,5.6-10.48,8.79-16.52,7.93-.29-.04-.58-.09-.87-.15-4.24-.98-6.68-6.58-5.61-11.61.51-2.76,1.93-5.08,3.21-7.37,4.1-6.22,16.53-16.75,22.63-10.37,2.43.62,3.04,5.22,3,7.82-.01.19-.03.38-.05.57-.51,5.47-2.72,9.31-5.79,13.19ZM99.03,114.93c4.74.05,9.36-2.68,12.23-7.36,1.33-1.79,2.67-3.64,3.1-6.09.21-1.17.61-2.41.3-3.61-.66-.24-1.24-.8-1.57-1.59-5.04-.3-10.11,4.58-13.74,8.51-1.21,1.51-2.94,4.56-3.16,6.92-.16,1.76.51,3.13,2.84,3.22Z"/><path d="M78.49,249.39c-.48-.07-.96-.17-1.43-.32-6.32-2.08-13.05-5-16.95-11.92-2.7-5.15-2.85-12.13,1.39-16.08,2.1-1.33,4.47-2.23,6.84-2.26,5.78.24,13.25,3.11,16.9,8.94,2.57.8,3.85,6.02,4.35,8.92.2,1.23.24,2.39.14,3.48-.59,6.36-6,9.99-11.23,9.24ZM63.37,229.6c.2,2.15.95,4.23,2.26,5.69,2.2,2.79,5.01,4.48,7.97,5.67,1.97.82,3.93,1.89,6.03,2.01,3.58.28,5.96-2.54,4.43-6.95-1.53-.81-2.2-3.7-3.55-5.16-2.68-3.28-6.57-4.46-10.15-5.42-.06,0-.12-.02-.19-.03-2.42-.35-6.46-.04-6.78,3.48-.02.22-.03.46-.02.71Z"/><path d="M288.57,140.93c-.08-.01-.16-.02-.24-.04-6.11-1.34-11.44-6.87-14.21-13.63-1.68-4.89-4.09-9.73-4.39-15.13-.22-4.28,2.05-8.54,5.38-9.8,5.72-1.63,11.13,2.88,15.33,7.21,3.12,2.65,5.82,5.98,7.37,10.31.9,2.43,2.39,5.12,1.69,7.89.11.98.12,1.94.03,2.86-.6,6.39-5.62,11.09-10.94,10.33ZM274.97,112.49c.7,4.22,2.49,8.04,3.85,11.97,2.01,4.82,5.75,8.77,10.05,9.99,2.33.42,5.01-1.23,5.4-4.3.3-1.85-.49-3.63-.36-5.42-.91-2.31-1.78-4.75-3.23-6.63-2.41-2.57-4.9-5.11-7.58-7.25-1.24-.94-3.23-2.09-4.94-2.33-1.61-.23-2.97.34-3.18,2.66-.04.39-.04.82,0,1.31Z"/><path d="M227.09,89.16c-3.96,3.59-8.45,6-12.78,8.79-3.44,2.16-6.97,4.1-10.53,5.93-9.04,4.58-18.6,7.38-28.02,10.49-6.48,1.33-12.76,5.08-19.41,4.13-.2-.03-.41-.06-.61-.1-5.31-.72-11.28-2.48-14.47-8.26-3.18-6.17-3.44-14.08-1.45-20.87,3.09-9.99,9.45-18.01,16.28-24.32,17.53-14.58,40.04-20.09,60.61-13.86,4.26,1.39,8.56,2.88,12.37,5.69,4.68,4.14,8.32,11.09,7.83,18.42-.83,6.01-6,10.66-9.81,13.97ZM145.86,106.97c3.08,4.21,8.11,4.72,12.42,5.2,3.75.18,7.28-1.54,10.87-2.62,10.49-2.96,21-6.26,31.1-10.88,6.1-3.11,32.8-17.07,31.4-25.99-.48-4.32-2.78-8.1-5.58-10.6-4.59-3.03-9.71-4.61-14.79-5.82-1.28-.29-2.57-.52-3.86-.71-8.19-1.17-16.5-.35-24.56,1.81-12.03,3.89-24.1,10.53-32.26,22.53-3.27,4.38-6.19,10.35-6.75,16.38-.34,3.65.18,7.33,2.01,10.69Z"/><path d="M166.63,248.87c-1.22.79-2.56.9-3.91.7-1.11-.16-2.21-.52-3.24-.86-6.12-2.02-11.7-5.72-17.12-9.71-7.98-5.51-14.85-13.09-20.61-21.85-2.49-3.21-4.81-6.6-7.02-10.11-3.1-5.19-5.66-10.85-8.63-16.16-2.97-6.58-6.16-13.06-8.39-20.1-1.9-5.7-4.32-11.12-6.08-16.89-.61-1.96-.97-4.06-.9-6.17-.04-2.91,1.4-7.45,4.11-4.43,5.25,7.13,7.88,16.43,11.8,24.63.28-2.79.18-5.6.07-8.42-.13-3.48-.27-6.97.34-10.39,1.05-6.57,5.48-16.25,8.48-4.75,1.18,4.27.51,8.7.16,13.05.11,3.5.8,6.93.63,10.46,1.09,1.63.5,4.15.83,6.13.16,2.14.68,4.2,1.33,6.18,4.29,12.56,10.89,24.24,19.71,32.52,3.68,3.42,7.77,6.08,12,8.3,3.71,2.1,7.91,3.02,11.21,6.09,1.36,1.36,2.78,2.76,3.78,4.56,1.87,5.08-3.8,5.38-6.41,4.27-2.47-.83-4.66-2.56-7.02-3.75-1.72-.85-3.49-1.53-5.1-2.69-2.89-1.78-5.6-4.46-8.73-5.44,1.02,1.71,2.87,2.37,4.26,3.54,3.79,2.84,7.82,5.16,11.77,7.63,3.88,2.22,8.17,3.54,11.59,6.84,1.23,1.16,2.56,2.99,2.4,4.66-.07.78-.46,1.52-1.33,2.15ZM98.85,165.32c1.51,4.1,2.77,8.33,4.5,12.31,1.48,3.45,2.99,6.5,4.42,9.92,1.32,2.86,2.9,5.51,4.34,8.27,1.82,3.59,3.54,7.27,5.76,10.52,5.58,8.24,11.22,16.56,18.03,23.31,3.78,3.43,7.85,6.36,11.94,9.19,4.89,3.44,10.24,6.4,15.85,7.31.23,0,.46-.01.69-.04.15-.02.3-.06.45-.09-2.84-3.65-7-4.93-10.66-6.85-3.34-1.87-6.58-4-9.84-6.05-2.47-1.73-4.98-3.4-7.37-5.31-2.28-1.74-2.68-6.05.25-7.14,3.02-.72,8.01,4.16,10.87,5.81,1.83,1.29,3.89,1.91,5.78,3.03,2.73,1.53,5.46,3.74,8.57,3.43-3.94-5.77-10.29-6.63-15.49-9.88-5.83-3.18-11.11-7.69-15.73-13.09-6.94-8.66-15.81-24.12-16.92-36.39-.74-2.68-.84-5.5-.81-8.3-.02-3.11-.88-6.15-.54-9.27.56-4.33.86-8.95-.86-12.97-3.85,6.83-2.32,15.39-2.45,23.17.11,2.7-1.17,7.6-3.98,5.54-1.83-1.93-2.72-4.83-3.78-7.43-2.53-5.94-4.79-12.18-8.25-17.4-.49,5.97,3.48,12.87,5.23,18.41ZM137.89,224.19s.01-.08.02-.13c0,0,0,0,0,0,0,.03,0,.06-.01.09,0,.01,0,.03,0,.04Z"/><path d="M311.53,186.98c-1.39,11-6.13,21.05-11.67,29.54-7.85,10.64-23.21,29.63-36.04,27.79-.54-.08-1.08-.19-1.62-.35-3.68-1.12-6.83-4.19-8.48-8.42-2.97-5.94-4.16-13.1-3.59-19.94.92-11.73,6.53-21.94,12.18-31.06,6.86-9.47,15.63-18.57,25.72-21.85,3.33-.85,6.88-2.18,10.23-1.02,3.25-.32,6.24,1.28,8.72,3.79,5.04,4.02,5.76,10.51,5.14,17.08-.14,1.49-.35,2.99-.59,4.46ZM255.05,223.17c.36,3.82,1.82,7.25,3.35,10.54,1.28,2.94,3.93,4.46,6.51,4.88,11.25-.55,21.48-13.61,29.06-22.88,2.54-3.13,4.58-6.78,6.51-10.47,2.04-3.56,3.62-7.44,4.67-11.61,1.45-5.19,3.56-15.21,1.49-20.2-.59-1.24-1.46-2.21-2.39-3.06-1.61-1.53-3.37-2.99-5.49-2.75-.68.45-1.5.46-2.18.06-1.11.05-2.19.34-3.27.64-1.59.19-3.38,1.78-4.83.37-9.89,3.65-20.38,14.94-25.97,25.57-3.62,6.39-6.85,13.75-7.58,21.54-.23,2.42-.21,4.89.11,7.38Z"/><path d="M312.08,184.74c-.84,5.19-2.24,10.27-4.22,14.96-1.92,4.48-3.93,8.91-6.18,13.15-2.49,4.49-5.74,8.22-8.95,11.9-2.97,3.34-6.13,6.42-9.23,9.56-2.27,2.19-4.57,4.36-7.2,5.86-2.05,1.31-4.21,2.34-6.52,2.66-1.81.46-3.66.77-5.49.51-.49-.07-.99-.18-1.48-.35-12.73-3.02-14.23-18.93-11.19-32.08,2.29-7.47,5.69-14.53,8.76-21.46,6.28-12.97,7.63-13.09,17.69-20.38,5.13-3.93,11.14-5.46,17.02-6.59,2.86-.14,6.61-1.73,8.7,1.59,6.03,3.43,9.08,12.13,8.34,20.04-.02.21-.04.42-.07.62ZM265.16,237.45c7.4.34,13.63-5.8,18.91-11.41,5.61-5.77,11.48-11.66,15.18-19.58,3.59-7.63,8.77-17.72,8.06-26.82-.58-6.26-4.3-11.25-9.55-11.16-3.89.01-7.59,1.72-11.36,2.78.06-.02.11-.04.17-.06.01,0,.02,0,.03-.01-4.06,1.34-7.47,4.56-10.91,7.41-2.26,2.05-4.76,6.04-7.46,6.85-3.01,5.13-5.44,10.73-7.84,16.31-1.61,3.99-3.49,7.91-4.48,12.21-.27,1.53-.49,3.08-.63,4.61-.85,9.04.88,17.6,9.87,18.88Z"/><path d="M281.71,172.03c-.53,1.5-1.99,1.63-2.85,2.74-1.71,1.6-3.32,3.34-5.02,4.96-3.15,3.3-5.61,7.46-8.26,11.34-3.32,5.14-5.85,11-8.08,16.95-.54,1.68-1.06,3.38-1.42,5.13-.12,1.82-1.18,3.63-2.76,3.4-.06,0-.13-.02-.19-.04-2.58-.68-2.04-3.87-1.4-6.21.61-2.34,1.32-4.63,2.19-6.84,2.53-6.31,5.36-12.53,9.08-17.84,2.46-3.65,4.85-7.44,7.82-10.48,1.3-1.26,2.59-2.56,3.87-3.86,1.14-1.06,2.21-2.27,3.48-3.1,1.75-1.25,3.99.62,3.78,2.92-.03.31-.1.63-.23.94Z"/><path d="M304.57,183.4c-.25.74-1.02,1.07-1.59.72-.92-.71-1.01-2.31-1.72-3.3-1.44-2.17-2.91-4.74-5.07-5.82-1.67-.37-2.63,2.39-1.36,3.74,1.16,1.66,1.97,3.64,3.13,5.29,1.72,2.07,2.9,4.67,3.29,7.61,1.63,8.44-4.92,9.5-8.19,3.36-2.58-4.28-4.76-9.3-8.47-12.24-2.38-1.11-6.69.18-6.61,4.01.38,3.3,3.19,5.43,5.12,7.42,2.77,2.39,5.64,4.83,7.37,8.53,1.23,2.2,2.96,4.54,2.27,7.42-.58,3.8-4.02,5.35-6.75,4.08-5.48-2.34-9.41-8.06-13.73-12.57-1.04-.76-2.26-1.95-3.52-1.58-1.11.84-2.48,2.2-2.11,4,.33,5.88,5.67,6.78,9.08,9.13,3.58,2.65,5.79,8.95,2.93,13.39-2.35,4.04-7.09,4.09-10.47,2.18-2.08-1.13-3.64-3.35-5.73-4.46-1.29-.88-3.83-.47-2.68,1.94.73,1.39,1.58,2.71,2.64,3.73,1,.99.07,2.77-.93,2.63-.21-.03-.42-.14-.63-.37-1.62-1.75-3.37-3.93-3.76-6.64-.27-3.33,2.62-5.51,5.03-4.51,3.61.91,5.84,5.57,9.63,5.85,7.01,1,7.58-8.63,1.85-11.72-5.09-2.65-9.63-4.59-9.39-12.63.16-1.76,1.23-3.12,2.27-4.21,2.28-2.77,5.55-.74,7.66,1.31,3.7,4.09,7.22,8.75,11.79,11.37,1.09.47,2.39.99,3.46.22,1.07-.79,1.41-2.75.7-4.02-4.3-9.02-7.46-8.53-12.56-15.22-5.41-7.2,1.19-14.51,7.58-12.24,3.54,2.03,5.69,6.35,7.96,10.08,1.34,1.96,2.13,4.77,4.16,5.81.61.31,1.62.57,1.74-.55.26-2.22-.29-4.56-1.1-6.53-1.13-2.03-2.65-3.68-3.62-5.85-.73-1.48-1.9-2.65-2.31-4.35-.72-2.95,1.19-6.21,3.64-6.43,2.67-.87,9.3,8.03,9,11.18,0,.08-.02.15-.03.22Z"/><path d="M58.84,181.3c-.24-.03-.47-.08-.71-.15-7-2.73-4.84-15.14-1.48-20.8,2.42-4.52,8.07-11.27,12.21-5.97,1.57,1.54,2.69,3.78,2.95,6.27.11,1,.1,2.09,0,3.22-.75,7.99-6.52,18.34-12.97,17.42Z"/><path d="M145.42,289.56c-.5-.07-.96-.49-1.02-1.31-.36-5.67-.49-12.46-4.24-16.45-1.53-1.28-3.3-1.7-5.05-2.2-2.29-.7-4.69-.33-6.75,1.09-3.31,1.96-5.01,6.43-6.46,10.38,1.12,1.51-.11,2.83-1.21,2.74-1.31-.11-2.44-2.25.89-8.51,2.37-5.99,7.83-10.11,13.25-8.78,3.5.74,7.15,2.01,9.02,6,2.31,4.61,2.66,10.19,2.93,15.48,0,.12,0,.23,0,.34-.08.87-.76,1.31-1.37,1.22Z"/><path d="M145.63,285.67c-.13,1.56-.2,4.54-2.07,3.62-.17.09-.36.12-.55.09-.4-.06-.77-.36-.95-.81-.05-.12-.08-.24-.11-.36-.36.16-.75.13-1.08-.13-.41-.32-.61-.92-.53-1.5-.14-.06-.28-.15-.39-.28-.14-.14-.23-.31-.3-.51-.69,1.31-2.47,1.11-2.85-.43-.6,1.18-2.28,1.62-2.88.22-.68.39-1.62.57-2.07-.36-.36.18-.78.25-1.16.16-.35-.08-.63-.32-.84-.64-.05-.02-.1-.05-.15-.08-.97,1.01-2.81.9-3.26-.76-.85,1.15-3.1,2.07-3.55.03-1.13-.16-1.63-1.84-1.15-3.02-1.72-2.04,2.18-6.6,3.19-8.4,1.16-1.33,4.1-6.8,5.64-3.91,1.36-.53,2.79,0,4.16.21,2.43.46,4.87,1.52,6.5,3.92h0c.5-.85,1.57-.71,2.01.15.59,1.69.2,3.7.45,5.51,1.36.41,1.29,2.52,1.37,3.91.72.53.75,1.45.66,2.36-.03.35-.08.69-.12,1.01Z"/><path d="M57.01,177.68c-.29-.04-.58-.24-.8-.63-2.57-4.51-5.4-8.83-8.47-12.84-1.93-2.51-3.36-5.52-5.22-8.09-.56-1.01-1.54-1.98-1.47-3.29.14-1.27,1.62-1.69,2.17-.59.22.43.44.85.68,1.26,1.84,2.59,3.37,5.49,5.18,8.11,1.52,1.94,3.01,3.9,4.28,6.11,1.73,2.43,3.4,4.93,4.83,7.64.18.33.24.66.21.97-.08.81-.76,1.44-1.4,1.35Z"/><path d="M58.34,168.08c-.29-.04-.58-.24-.8-.64-4.15-6.34-8.27-12.75-12.42-19.1-1.89-2.24.68-4.76,1.9-1.81,3.27,4.91,6.44,9.91,9.61,14.9,1.02,1.39,2.09,2.72,2.9,4.33.18.33.24.66.21.97-.08.81-.76,1.44-1.4,1.35Z"/><path d="M60.91,161.27c-.29-.04-.58-.24-.8-.63-3.79-6.51-7.37-13.2-11.3-19.59-.5-.83-1.13-1.92-.58-2.94.35-.68,1.11-.89,1.66-.45.6.62.7,1.66,1.28,2.35,2.89,4.87,5.81,9.72,8.47,14.78.81,1.39,1.65,2.77,2.45,4.17.18.33.24.66.22.97-.08.8-.76,1.44-1.4,1.35Z"/><path d="M66.59,156.86s-.07-.01-.1-.02c-1-.28-1.24-1.83-1.85-2.71-1.97-3.19-3.56-6.7-5.51-9.89-1.43-2.29-2.82-4.61-4.11-7.04-.6-1.62-2.7-3.38-1.9-5.26.35-.68,1.11-.88,1.66-.45.69.93,1.08,2.17,1.75,3.17,1.47,2.76,3.03,5.45,4.68,8.06,1.22,1.88,2.16,4,3.25,5.99,1.1,1.91,2.25,3.79,3.21,5.81.17.3.23.64.2.97-.07.76-.62,1.45-1.3,1.36Z"/><path d="M217.87,160.33c-.32,1.06-1.62,2.28-2.63,2.14-.16-.02-.32-.08-.46-.18-3.42-1.33-1.97-6.72,1.26-6.19,1.24.37,2.07,2.1,1.93,3.64-.02.2-.06.4-.11.6Z"/><path d="M214.36,177.01c-.13-.02-.27-.04-.4-.08-.35-.15-.63-.41-.86-.75-2.17-1.16,0-5.49,1.9-5.22,1.93.62,2.76,2.24,2.63,3.66-.13,1.44-1.27,2.67-3.26,2.38Z"/><path d="M212.87,187.88c-.02.87-.69,1.48-1.35,1.39-.12-.02-.24-.06-.36-.13-2.52-.95-3.31-4.7-.72-6.23,1.9-.96,3.13,1.33,2.94,3.38-.05.58-.22,1.14-.52,1.6Z"/><path d="M207.1,198.55c-.33,1.15-1.31,1.97-2.3,1.72-.25.25-.58.36-.89.31-.18-.03-.35-.1-.5-.22-.84-.87-.86-2.66-.51-3.86.63-1.36,1.92-2.73,3.25-2.65,1.23.11,1.89,1.59,1.76,2.95-.06.68-.32,1.32-.81,1.74Z"/><path d="M201.06,207.67c.25,1-.53,2.07-1.36,1.86-.05,0-.1,0-.16-.02-2.03-.29-2.93-3.31-1.4-5.1.55-.61,1.32-.99,2.05-.78,1.22-.23,1.55.9,1.43,2.1-.07.72-.29,1.46-.57,1.94Z"/><path d="M193.48,216.64c-.25-.04-.5-.14-.76-.34-2.51-.57-.47-5.38,1.5-4.85,1.2.22,1.61,1.34,1.5,2.47-.13,1.42-1.06,2.88-2.24,2.72Z"/><path d="M189.27,222.37c-.57.85-1.4,1.83-2.33,1.69-.17-.02-.35-.09-.53-.2-.99-.58-1.69-2.84-.55-3.67.68-1.05,2.19-1.94,3.17-1.09.41.55.59,1.41.52,2.21-.04.38-.13.75-.29,1.06Z"/><path d="M180.95,232.85c-.25.31-.63.47-.98.42-.02,0-.04,0-.07-.01-1.12-.25-1.18-1.85-.64-2.86-.02-.73.29-1.43.77-1.84,1.15-.98,2.75.32,3.05,1.82.04.21.05.42.03.62-.11,1.21-1.18,2.14-2.16,1.85Z"/><path d="M183.72,241.24c-.12-.02-.24-.06-.37-.14-.08-.05-.17-.1-.25-.16-1.54.21-2.3-2.71-1.24-3.9,1.12-2.23,3.52-.05,3.09,2.09.1.25.13.51.11.75-.07.78-.69,1.44-1.34,1.35Z"/><path d="M190.12,234.95c-.26.33-.62.46-.97.41-.39-.06-.76-.33-.94-.79-1.31-2.64.22-5.73,2.72-4.66.69.52.96,1.58.86,2.6-.11,1.18-.7,2.3-1.67,2.45Z"/><path d="M196.4,228.7c-.24-.03-.5-.13-.76-.31-1.33-.98-1.11-3.68,0-4.78.72-.51,1.83-.48,2.42.32.47.63.63,1.44.56,2.21-.13,1.42-1.04,2.73-2.21,2.56Z"/><path d="M202.89,221.27c-.25.47-.72.72-1.16.66-.17-.02-.34-.1-.49-.23-2.6-2.03-.23-7.11,2.36-4.94.56.56.79,1.53.71,2.43-.09.99-.57,1.89-1.42,2.08Z"/><path d="M208.18,213.07c-.45.76-1.3,1.14-2.07,1.03-.44-.06-.86-.29-1.16-.69-1.87-1.29-.17-5.6,1.81-5.02,1.15.34,1.89,2.08,1.76,3.55-.04.41-.14.8-.33,1.13Z"/><path d="M211.03,205.75c-.23-.03-.47-.13-.7-.3-2.33-1.77.65-6,2.52-4.04.45.53.6,1.18.54,1.82-.13,1.38-1.22,2.69-2.36,2.52Z"/><path d="M216.39,210.02c-.13-.02-.26-.06-.4-.11-3.29-1.43-1.29-6.61,1.42-5.36.63.25.92,1.12.99,1.88.19.44.25.9.2,1.34-.12,1.3-1.11,2.4-2.21,2.25Z"/><path d="M211.34,220.45c-.17.7-.75,1.07-1.3.99-.27-.04-.54-.19-.73-.47-1.76-1.93-1.14-5.33,1.29-5.63,1.41-.11,1.98,1.36,1.85,2.8-.09.93-.47,1.84-1.11,2.32Z"/><path d="M206.24,229.01c.18,1.46-.96,1.87-1.92,1.73-.14-.02-.28-.05-.41-.1-2.26-.63-1.53-5.16.57-5.36,1.2-.03,2.01,1.74,1.87,3.15-.02.2-.06.39-.11.57Z"/><path d="M200.29,237.82c-.18.61-.7,1.07-1.23,1-.03,0-.07-.01-.11-.02-2.61-1.06-2.02-4.15.37-5,1.36-.34,2.18,1.02,2.07,2.29-.06.69-.41,1.36-1.09,1.73Z"/><path d="M201.76,244.9c-.22-.03-.44-.11-.68-.25-2.14-1.27-.3-5.7,1.79-4.54.84.53,1.13,1.49,1.05,2.41-.12,1.31-1.01,2.55-2.16,2.39Z"/><path d="M210.53,234.02c-.07,1.1-.97,1.49-1.77,1.38-.23-.03-.46-.11-.66-.22-.98-.54-1.3-2.08-.86-3.24.29-1.08,1.24-1.61,1.75-2.45.93-1.43,2.78.3,1.91,1.8.15.4.19.85.15,1.28-.05.53-.23,1.05-.51,1.45Z"/><path d="M213.89,225.73c-.1-.01-.21-.04-.3-.08-1.86-.8-1.05-4.16.65-4.49.95-1.01,2.57.06,2.09,1.62.06.26.07.52.05.76-.13,1.35-1.4,2.34-2.49,2.18Z"/><path d="M219.01,217.93c-.15-.02-.3-.06-.44-.13-2.97-.82-1.33-5.88,1.19-5.51.71.13,1.2.96,1.35,1.78.24.5.31,1.02.27,1.51-.13,1.36-1.19,2.51-2.36,2.35Z"/><path d="M225.06,215.39c-.31-.05-.62-.24-.89-.62-2.45-2.91.4-6.96,2.6-4,.45.57.6,1.26.53,1.94-.14,1.46-1.23,2.83-2.24,2.69Z"/><path d="M222.53,227.63c-.18.63-.75,1.05-1.27.98-.12-.02-.25-.06-.36-.14-1.9-.9-2.42-4.51-.42-5.65,1.54-2.02,3.16.89,2.96,3.07-.07.74-.34,1.39-.9,1.74Z"/><path d="M217.92,236.28c.15,1.05-.63,1.82-1.36,1.71-.26-.04-.52-.19-.72-.48-1.84-1.8-1.12-6.37,1.46-6.2,1.2.18,1.76,1.61,1.64,2.94-.08.82-.41,1.59-1.02,2.02Z"/><path d="M216.16,237.22c-.28-.04-.58-.14-.88-.31-2.46-1.62-.35-7.33,2.24-4.93,1.12.48,1.52,1.51,1.42,2.54-.14,1.46-1.28,2.91-2.78,2.69Z"/><path d="M212.98,244.21c-.58.47-1.16,1.24-1.91,1.14-.01,0-.03,0-.04,0-3.1-1.1-1.69-6.49,1.29-5.56,1.03.32,1.62,1.61,1.51,2.78-.06.64-.33,1.25-.85,1.65Z"/><path d="M207.35,251.94c-.38,1.16-1.27,2.32-2.33,2.17-.09-.01-.19-.04-.28-.07-1.42-.52-1.68-3.05-.89-4.4.66-.89,1.65-1.73,2.66-1.55.97.18,1.55,1.4,1.44,2.51-.05.51-.24.99-.6,1.34Z"/><path d="M201.13,261.56c-.4.76-1.06,1.5-1.82,1.39-.08-.01-.15-.03-.23-.06-3.13-1.03-.19-7.18,2.04-4.11.56.24.81.93.75,1.58-.05.51-.29.99-.73,1.2Z"/><path d="M199.18,273.78c-.53-.08-.97-.53-1.09-1.55,0-.2.02-.4.04-.6-1.02-3.02,1.98-5.06,2.67-2.18.71.56.94,1.24.88,1.9-.13,1.34-1.49,2.58-2.51,2.43Z"/><path d="M209.5,267.11c-.19,1.17-1.38,2.45-2.37,2.3-.29-.04-.57-.21-.8-.53-1.39-.91-.79-3.94.81-3.82,1.09-.87,2.54.31,2.39,1.84,0,.07-.02.13-.03.2Z"/><path d="M215.66,259.55c-.48.85-1.47,1.48-2.32,1.36-.43-.06-.82-.31-1.09-.81-1.09-1.8,1.4-5.32,2.93-4.2.59.59.86,1.63.77,2.58-.04.38-.13.75-.28,1.07Z"/><path d="M219.07,251.62c-.12-.02-.24-.05-.36-.1-.91-.5-1.04-1.97-.5-2.91.34-.98.99-2.15,1.99-1.57,1.03.41,1.38,1.26,1.3,2.13-.12,1.3-1.22,2.62-2.42,2.45Z"/><path d="M225.87,240.39c-.56.87-1.58,1.2-2.44,1.08h-.05c-2.04-.99.2-5.84,2.03-4.97.83.33,1.09,1.27,1,2.22-.06.61-.26,1.22-.54,1.67Z"/><path d="M229.07,230.84c-.08-.01-.17-.03-.25-.06-2.38-1.02-.97-5.62,1.39-4.5.77.45,1.04,1.33.96,2.2-.12,1.27-.97,2.52-2.09,2.36Z"/><path d="M233.95,220.68c-.1.77-.71,1.31-1.32,1.22-.02,0-.04,0-.06-.01-1.96-.23-1.94-3.57-.35-4.48,1.25-.87,2.44.63,2.31,2.03-.04.45-.22.89-.57,1.24Z"/><path d="M235.37,211.26c-.17-.02-.35-.08-.54-.18-.48-.28-.83-.89-.89-1.54,0-.07,0-.13-.01-.2-1.02-1.67,1.13-3.56,2.4-2.93.94.41,1.26,1.41,1.17,2.39-.12,1.32-1,2.62-2.14,2.46Z"/><path d="M235.05,220.3c-.19.78-.85,1.5-1.69,1.38-.13-.02-.27-.06-.41-.12-1.34-.76-.66-3.68.85-3.05,1,.1,1.36.8,1.29,1.52,0,.09-.02.18-.05.28Z"/><path d="M238.43,200.29c-.22-.03-.45-.12-.67-.29-2.27-1.96.29-5.86,2.29-3.78.35.5.47,1.13.41,1.74-.12,1.28-1,2.48-2.03,2.33Z"/><path d="M242.51,187.4c-.04,1.22-1.21,1.81-2.12,1.68-.1-.02-.21-.04-.3-.07-1.65-.68-1.28-3.52,0-4.47,1.24-1.14,2.86.33,2.71,1.94-.03.3-.12.61-.29.91Z"/><path d="M242.98,177.46c-.13-.02-.27-.06-.41-.13-2.45-.53-.96-5.27,1.16-4.07.75.4,1.01,1.32.93,2.2-.1,1.1-.75,2.13-1.68,1.99Z"/><path d="M243.48,167.42c-.19-.03-.39-.1-.58-.22-1.96-1.25-.05-5.6,1.87-4.76.86.44,1.15,1.34,1.06,2.27-.13,1.42-1.16,2.88-2.35,2.71Z"/><path d="M243.86,154.75c-.2-.03-.41-.1-.62-.24-2.23-1.27-.39-5.91,1.78-4.4.65.52.88,1.43.79,2.31-.12,1.27-.89,2.48-1.95,2.33Z"/><path d="M242.25,143.12c-.19-.03-.39-.1-.6-.24-2.43-.75-.92-5.38,1.28-4.06.78.43,1.06,1.4.97,2.31-.1,1.1-.74,2.12-1.65,1.99Z"/><path d="M237.52,134.13c-.21-.03-.43-.12-.65-.26-2.5-1.9-.43-5.67,2.03-4.56.8.46,1.07,1.3.99,2.15-.13,1.4-1.21,2.84-2.38,2.67Z"/><path d="M230.21,126.92c-.2.11-.41.15-.61.12-.29-.04-.57-.21-.77-.48-1.65-1.81.57-5.01,2.34-3.61.69.45.95,1.32.87,2.14-.1,1.07-.78,2.04-1.83,1.83Z"/><path d="M225.57,131.02c.19,1.52-.96,2.45-1.99,2.31-.52-.07-1.01-.43-1.28-1.13-.68-1.99.62-3.31,1.81-3.54.91-.18,1.76.27,1.64,1.52-.02.25-.08.52-.19.83Z"/><path d="M229.14,140.86c-.18.08-.37.11-.56.08-.07-.01-.14-.03-.21-.05-1.95-.98-.06-4.55,1.57-4.18,1.08.18,1.48,1.2,1.39,2.2-.11,1.22-.96,2.4-2.2,1.95Z"/><path d="M232.3,150.5c-.15-.02-.31-.07-.46-.16-2.58-.52-1.07-3.84.47-4.79,1.03-1.02,2.49.68,1.73,2,.13.34.17.7.14,1.04-.1,1.1-.95,2.04-1.87,1.91Z"/><path d="M232.95,161.55c-.23-.03-.45-.13-.67-.29-1.56-1.1-.81-4.33.89-4.55.81-.12,1.74.65,1.61,1.74.16.38.21.77.17,1.13-.11,1.16-1.04,2.11-1.99,1.97Z"/><path d="M233.12,170.3c-.25.45-.69.64-1.1.58-.39-.06-.75-.32-.93-.79-.82-1.71.46-4.15,2.07-3.48.82.27,1.2,1.27,1.12,2.17-.07.73-.45,1.39-1.16,1.53Z"/><path d="M230.61,178.35c-.03.89-.71,1.46-1.36,1.37-.22-.03-.43-.14-.62-.34-1.47-1.12-.94-4.05.66-4.54,1.2-.36,1.96.97,1.84,2.22-.04.47-.21.93-.53,1.29Z"/><path d="M224.63,176.51c-.09-.01-.19-.04-.29-.07-2.28-.5-.92-4.57,1-3.85.83.31,1.12,1.15,1.05,1.98-.1,1.05-.8,2.08-1.76,1.94Z"/><path d="M226.3,163.63c-.22,1.11-.98,2.14-1.93,2-.04,0-.08-.01-.13-.03-1.76-.84-1.2-4.53.71-4.45,1.12.09,1.5,1.08,1.4,2.1-.01.12-.03.25-.06.37Z"/><path d="M223.29,153.66c-.25.43-.69.62-1.1.56-.39-.06-.75-.32-.92-.79-1.17-2.61,1.03-5.93,3.04-3.55.42.52.59,1.23.53,1.9-.09.96-.64,1.82-1.54,1.88Z"/><path d="M216.68,150.98c-.15-.02-.3-.07-.46-.15-1.71-.91-1.17-4.15.42-4.83.79-.29,1.95-.08,2.4.86.08.33.1.7.07,1.08-.14,1.54-1.19,3.21-2.43,3.04Z"/><path d="M215.33,160.24c.2,1.2-.81,2.15-1.72,2.02-.1-.01-.21-.04-.31-.09-2.21-.92-1.27-5.75,1.02-5.33.86.28,1.78,1.34,1.69,2.31-.04.4-.24.78-.69,1.09Z"/><path d="M213.5,176.53c-.05,0-.11-.02-.16-.03-2.29-.6-1.09-5.22,1.05-4.01.69.39.93,1.24.86,2.05-.1,1.09-.78,2.12-1.75,1.98Z"/></svg>
